<?xml version="1.0" encoding="utf-8" ?>
<svg baseProfile="full" height="700px" version="1.1" width="700px" xmlns="http://www.w3.org/2000/svg" xmlns:ev="http://www.w3.org/2001/xml-events" xmlns:xlink="http://www.w3.org/1999/xlink"><defs><clipPath id="border_clip"><rect height="700" width="700" x="0" y="0" /></clipPath></defs><polygon clip-path="url(#border_clip)" fill="#c15212" fill-rule="evenodd" points="480.5,419.5 556.5,419.5 556.5,401.5 480.5,401.5 480.5,419.5" stroke-width="0" /><polygon clip-path="url(#border_clip)" fill="#4e8861" fill-rule="evenodd" points="57.5,264.5 139.5,264.5 139.50000000000003,208.5 57.5,208.49999999999997 57.5,264.5" stroke-width="0" /><polygon clip-path="url(#border_clip)" fill="#1bd698" fill-rule="evenodd" points="130.5,166.5 218.5,166.50000000000006 218.50000000000006,78.50000000000006 130.50000000000006,78.5 130.5,166.5" stroke-width="0" /><polygon clip-path="url(#border_clip)" fill="#db880a" fill-rule="evenodd" points="381.5,290.5 479.5,290.50000000000006 479.5,252.50000000000006 381.5,252.5 381.5,290.5" stroke-width="0" /><polygon clip-path="url(#border_clip)" fill="#785995" fill-rule="evenodd" points="142.0,586.5 237.0,586.5000000000001 237.00000000000006,544.5000000000001 142.00000000000006,544.5 142.0,586.5" stroke-width="0" /><polygon clip-path="url(#border_clip)" fill="#e72e50" fill-rule="evenodd" points="519.0,198.0 618.0,198.0000000000001 618.0,179.0000000000001 519.0,178.99999999999997 519.0,197.99999999999997" stroke-width="0" /><polygon clip-path="url(#border_clip)" fill="#344449" fill-rule="evenodd" points="369.5,654.0 427.5,654.0 427.5000000000001,575.0 369.5000000000001,575.0 369.5,654.0" stroke-width="0" /><polygon clip-path="url(#border_clip)" fill="#141a25" fill-rule="evenodd" points="340.5,315.5 404.5,315.5000000000001 404.50000000000017,231.5000000000001 340.50000000000017,231.5 340.5,315.5" stroke-width="0" /><polygon clip-path="url(#border_clip)" fill="#dc9455" fill-rule="evenodd" points="551.5,362.5 569.5,362.50000000000006 569.5,356.50000000000006 551.5,356.5 551.5,362.5" stroke-width="0" /><polygon clip-path="url(#border_clip)" fill="#2401fb" fill-rule="evenodd" points="144.0,578.5 157.0,578.5 157.00000000000017,498.5 144.00000000000017,498.5 143.99999999999997,578.5" stroke-width="0" /><polygon clip-path="url(#border_clip)" fill="#42573e" fill-rule="evenodd" points="165.5,651.0 235.5,651.0000000000002 235.50000000000017,586.0000000000002 165.50000000000017,586.0 165.5,651.0" stroke-width="0" /><polygon clip-path="url(#border_clip)" fill="#5ee666" fill-rule="evenodd" points="400.5,396.0 408.5,396.0 408.50000000000017,341.0 400.50000000000017,341.0 400.5,396.0" stroke-width="0" /><polygon clip-path="url(#border_clip)" fill="#5511b6" fill-rule="evenodd" points="552.0,301.5 641.0,301.5000000000003 641.0000000000002,237.50000000000026 552.0000000000002,237.5 552.0,301.5" stroke-width="0" /><polygon clip-path="url(#border_clip)" fill="#a0fc36" fill-rule="evenodd" points="188.5,342.5 244.5,342.50000000000017 244.50000000000003,332.50000000000017 188.50000000000003,332.5 188.5,342.5" stroke-width="0" /><polygon clip-path="url(#border_clip)" fill="#ad9b0e" fill-rule="evenodd" points="503.0,169.0 542.0,169.00000000000014 542.0000000000001,130.00000000000014 503.0000000000001,130.0 503.0,169.0" stroke-width="0" /><polygon clip-path="url(#border_clip)" fill="#19042d" fill-rule="evenodd" points="117.5,494.0 187.5,494.0000000000002 187.50000000000028,417.0000000000002 117.50000000000028,417.0 117.5,494.0" stroke-width="0" /><polygon clip-path="url(#border_clip)" fill="#7f6470" fill-rule="evenodd" points="280.0,93.5 297.0,93.50000000000006 297.0000000000001,57.50000000000006 280.0000000000001,57.5 280.0,93.5" stroke-width="0" /><polygon clip-path="url(#border_clip)" fill="#8589c3" fill-rule="evenodd" points="319.5,226.5 373.5,226.50000000000023 373.50000000000006,212.50000000000023 319.50000000000006,212.5 319.5,226.5" stroke-width="0" /><polygon clip-path="url(#border_clip)" fill="#69a0e0" fill-rule="evenodd" points="129.5,400.5 175.5,400.5000000000002 175.50000000000014,370.5000000000002 129.50000000000014,370.5 129.5,400.5" stroke-width="0" /><polygon clip-path="url(#border_clip)" fill="#428c04" fill-rule="evenodd" points="537.0,168.5 600.0,168.50000000000028 600.0000000000001,150.50000000000028 537.0000000000001,150.49999999999997 537.0,168.49999999999997" stroke-width="0" /><polygon clip-path="url(#border_clip)" fill="#3d4ae4" fill-rule="evenodd" points="295.5,78.0 315.5,78.00000000000011 315.5000000000001,57.000000000000114 295.5000000000001,57.0 295.5,78.0" stroke-width="0" /><polygon clip-path="url(#border_clip)" fill="#34f629" fill-rule="evenodd" points="374.5,220.0 412.5,220.0000000000002 412.50000000000045,137.0000000000002 374.50000000000045,137.0 374.5,220.0" stroke-width="0" /><polygon clip-path="url(#border_clip)" fill="#5f689b" fill-rule="evenodd" points="455.0,235.5 540.0,235.50000000000045 540.0000000000002,191.50000000000045 455.0000000000002,191.5 455.0,235.5" stroke-width="0" /><polygon clip-path="url(#border_clip)" fill="#85d8d6" fill-rule="evenodd" points="357.5,516.5 425.5,516.5000000000003 425.50000000000017,488.50000000000034 357.50000000000017,488.5 357.5,516.5" stroke-width="0" /><polygon clip-path="url(#border_clip)" fill="#e46122" fill-rule="evenodd" points="489.0,102.0 572.0,102.00000000000048 572.0000000000005,17.000000000000455 489.0000000000005,16.999999999999943 489.0,101.99999999999994" stroke-width="0" /><polygon clip-path="url(#border_clip)" fill="#edb281" fill-rule="evenodd" points="574.5,437.5 586.5,437.50000000000006 586.5000000000003,377.50000000000006 574.5000000000003,377.5 574.5,437.5" stroke-width="0" /><polygon clip-path="url(#border_clip)" fill="#4e6801" fill-rule="evenodd" points="546.0,433.0 551.0,433.0 551.0000000000002,390.0 546.0000000000002,390.0 546.0,433.0" stroke-width="0" /><polygon clip-path="url(#border_clip)" fill="#9a0471" fill-rule="evenodd" points="479.0,377.0 518.0,377.0000000000003 518.0,368.0000000000003 479.00000000000006,368.0 479.0,377.0" stroke-width="0" /><polygon clip-path="url(#border_clip)" fill="#1b5979" fill-rule="evenodd" points="158.0,665.5 217.0,665.5000000000005 217.00000000000034,615.5000000000005 158.00000000000034,615.5 158.0,665.5" stroke-width="0" /><polygon clip-path="url(#border_clip)" fill="#cee03d" fill-rule="evenodd" points="73.5,562.0 85.5,562.0000000000001 85.50000000000028,523.0000000000001 73.50000000000028,523.0 73.5,562.0" stroke-width="0" /><polygon clip-path="url(#border_clip)" fill="#252c92" fill-rule="evenodd" points="270.5,590.0 294.5,590.0000000000002 294.5000000000001,577.0000000000002 270.5000000000001,577.0 270.5,590.0" stroke-width="0" /><polygon clip-path="url(#border_clip)" fill="#159c81" fill-rule="evenodd" points="27.5,414.5 115.5,414.5000000000007 115.50000000000043,358.5000000000007 27.500000000000455,358.5 27.5,414.5" stroke-width="0" /><polygon clip-path="url(#border_clip)" fill="#778699" fill-rule="evenodd" points="444.0,544.5 517.0,544.5000000000006 517.0000000000002,512.5000000000006 444.0000000000002,512.5 444.0,544.5" stroke-width="0" /><polygon clip-path="url(#border_clip)" fill="#8cb699" fill-rule="evenodd" points="264.5,492.0 310.5,492.00000000000034 310.5000000000007,411.00000000000034 264.5000000000007,411.0 264.5,492.0" stroke-width="0" /><polygon clip-path="url(#border_clip)" fill="#a4bc3e" fill-rule="evenodd" points="331.5,203.5 379.5,203.5000000000004 379.5000000000001,189.5000000000004 331.5000000000001,189.5 331.5,203.5" stroke-width="0" /><polygon clip-path="url(#border_clip)" fill="#d21305" fill-rule="evenodd" points="231.5,157.0 253.5,157.0000000000002 253.50000000000023,130.0000000000002 231.50000000000023,130.0 231.5,157.0" stroke-width="0" /><polygon clip-path="url(#border_clip)" fill="#6644dc" fill-rule="evenodd" points="310.0,177.0 375.0,177.00000000000057 375.0000000000006,108.00000000000057 310.0000000000006,108.0 310.0,177.0" stroke-width="0" /><polygon clip-path="url(#border_clip)" fill="#3b27d7" fill-rule="evenodd" points="373.5,518.0 423.5,518.0000000000005 423.5000000000002,491.00000000000045 373.5000000000002,491.0 373.5,518.0" stroke-width="0" /><polygon clip-path="url(#border_clip)" fill="#72430f" fill-rule="evenodd" points="511.5,153.5 563.5,153.50000000000048 563.5000000000005,105.50000000000048 511.50000000000045,105.5 511.5,153.5" stroke-width="0" /><polygon clip-path="url(#border_clip)" fill="#2698d8" fill-rule="evenodd" points="381.5,394.5 471.5,394.50000000000085 471.50000000000045,344.50000000000085 381.50000000000045,344.5 381.5,394.5" stroke-width="0" /><polygon clip-path="url(#border_clip)" fill="#69c98c" fill-rule="evenodd" points="446.5,520.0 462.5,520.0000000000002 462.50000000000057,463.00000000000017 446.50000000000057,463.0 446.5,520.0" stroke-width="0" /><polygon clip-path="url(#border_clip)" fill="#fecca7" fill-rule="evenodd" points="342.0,264.0 379.0,264.00000000000034 379.0000000000004,227.00000000000037 342.0000000000004,227.0 342.0,264.0" stroke-width="0" /><polygon clip-path="url(#border_clip)" fill="#e3571b" fill-rule="evenodd" points="458.5,644.5 504.5,644.5000000000005 504.5000000000007,578.5000000000005 458.5000000000007,578.5 458.5,644.5" stroke-width="0" /><polygon clip-path="url(#border_clip)" fill="#3e6b25" fill-rule="evenodd" points="298.5,462.5 372.5,462.5000000000008 372.50000000000006,456.5000000000008 298.50000000000006,456.5 298.5,462.5" stroke-width="0" /><polygon clip-path="url(#border_clip)" fill="#4b091b" fill-rule="evenodd" points="578.0,156.0 633.0,156.0000000000006 633.0000000000001,147.0000000000006 578.0000000000001,147.0 578.0,156.0" stroke-width="0" /><polygon clip-path="url(#border_clip)" fill="#6595ce" fill-rule="evenodd" points="226.0,140.5 235.0,140.50000000000009 235.00000000000009,132.50000000000009 226.00000000000009,132.49999999999997 226.0,140.49999999999997" stroke-width="0" /><polygon clip-path="url(#border_clip)" fill="#167b1d" fill-rule="evenodd" points="610.0,452.5 649.0,452.50000000000045 649.0000000000003,424.50000000000045 610.0000000000003,424.5 610.0,452.5" stroke-width="0" /><polygon clip-path="url(#border_clip)" fill="#0db472" fill-rule="evenodd" points="278.5,281.5 356.5,281.5000000000009 356.50000000000017,265.5000000000009 278.50000000000017,265.5 278.5,281.5" stroke-width="0" /><polygon clip-path="url(#border_clip)" fill="#e1588c" fill-rule="evenodd" points="446.0,327.0 495.0,327.00000000000057 495.0000000000002,308.00000000000057 446.0000000000002,308.0 446.0,327.0" stroke-width="0" /><polygon clip-path="url(#border_clip)" fill="#a8f53f" fill-rule="evenodd" points="478.0,96.0 539.0,96.00000000000074 539.0000000000005,61.00000000000074 478.00000000000045,61.0 478.0,96.0" stroke-width="0" /><polygon clip-path="url(#border_clip)" fill="#7da6ce" fill-rule="evenodd" points="130.5,194.5 190.5,194.50000000000074 190.50000000000105,108.50000000000074 130.50000000000105,108.5 130.49999999999997,194.5" stroke-width="0" /><polygon clip-path="url(#border_clip)" fill="#1416f9" fill-rule="evenodd" points="468.5,412.0 546.5,412.00000000000097 546.5000000000006,369.00000000000097 468.50000000000057,369.0 468.5,412.0" stroke-width="0" /><polygon clip-path="url(#border_clip)" fill="#8ab023" fill-rule="evenodd" points="40.0,215.5 77.0,215.50000000000048 77.00000000000085,149.50000000000048 40.00000000000085,149.5 40.0,215.5" stroke-width="0" /><polygon clip-path="url(#border_clip)" fill="#7e8b36" fill-rule="evenodd" points="177.5,622.0 187.5,622.0000000000001 187.5000000000005,583.0000000000001 177.5000000000005,583.0 177.5,622.0" stroke-width="0" /><polygon clip-path="url(#border_clip)" fill="#ebc059" fill-rule="evenodd" points="588.5,535.0 618.5,535.0000000000005 618.5000000000011,444.0000000000004 588.5000000000011,444.0 588.5,535.0" stroke-width="0" /><polygon clip-path="url(#border_clip)" fill="#2f6e3b" fill-rule="evenodd" points="414.5,520.5 494.5,520.5000000000011 494.50000000000034,494.5000000000011 414.50000000000034,494.5 414.5,520.5" stroke-width="0" /><polygon clip-path="url(#border_clip)" fill="#068a61" fill-rule="evenodd" points="472.0,388.5 563.0,388.50000000000125 563.0000000000007,342.50000000000125 472.0000000000006,342.5 472.0,388.5" stroke-width="0" /><polygon clip-path="url(#border_clip)" fill="#8f9de8" fill-rule="evenodd" points="328.5,197.5 378.5,197.5000000000007 378.50000000000114,117.50000000000071 328.50000000000114,117.5 328.5,197.5" stroke-width="0" /><polygon clip-path="url(#border_clip)" fill="#aa75db" fill-rule="evenodd" points="476.5,320.5 522.5,320.5000000000007 522.5000000000008,264.5000000000007 476.5000000000008,264.5 476.5,320.5" stroke-width="0" /><polygon clip-path="url(#border_clip)" fill="#563d46" fill-rule="evenodd" points="600.0,570.5 699.0,570.5000000000014 699.0000000000011,490.5000000000014 600.0000000000011,490.5 600.0,570.5" stroke-width="0" /><polygon clip-path="url(#border_clip)" fill="#c00760" fill-rule="evenodd" points="373.5,389.5 437.5,389.5000000000009 437.50000000000045,359.5000000000009 373.50000000000045,359.5 373.5,389.5" stroke-width="0" /><polygon clip-path="url(#border_clip)" fill="#e4cdbe" fill-rule="evenodd" points="7.5,293.0 95.5,293.0000000000013 95.5000000000006,254.0000000000013 7.500000000000568,254.0 7.5,293.0" stroke-width="0" /><polygon clip-path="url(#border_clip)" fill="#28e24e" fill-rule="evenodd" points="568.0,310.0 623.0,310.00000000000085 623.0000000000005,281.00000000000085 568.0000000000005,281.0 568.0,310.0" stroke-width="0" /><polygon clip-path="url(#border_clip)" fill="#afa608" fill-rule="evenodd" points="335.0,438.5 386.0,438.5000000000008 386.0000000000009,378.5000000000008 335.0000000000009,378.5 335.0,438.5" stroke-width="0" /><polygon clip-path="url(#border_clip)" fill="#d484a4" fill-rule="evenodd" points="165.5,305.5 265.5,305.5000000000016 265.50000000000034,283.5000000000016 165.50000000000034,283.5 165.5,305.5" stroke-width="0" /><polygon clip-path="url(#border_clip)" fill="#ee6e5e" fill-rule="evenodd" points="337.5,523.0 387.5,523.0000000000008 387.5000000000003,504.0000000000008 337.5000000000003,504.0 337.5,523.0" stroke-width="0" /><polygon clip-path="url(#border_clip)" fill="#674789" fill-rule="evenodd" points="353.5,487.0 373.5,487.00000000000034 373.50000000000153,392.00000000000034 353.50000000000153,392.0 353.5,487.0" stroke-width="0" /><polygon clip-path="url(#border_clip)" fill="#761fe9" fill-rule="evenodd" points="274.0,402.5 295.0,402.50000000000034 295.0000000000011,336.50000000000034 274.0000000000011,336.5 274.0,402.5" stroke-width="0" /><polygon clip-path="url(#border_clip)" fill="#25f859" fill-rule="evenodd" points="545.0,572.5 642.0,572.5000000000016 642.0000000000011,508.5000000000016 545.0000000000011,508.5 545.0,572.5" stroke-width="0" /><polygon clip-path="url(#border_clip)" fill="#e8ffe5" fill-rule="evenodd" points="376.5,411.0 382.5,411.0000000000001 382.5000000000014,326.0000000000001 376.5000000000014,326.0 376.5,411.0" stroke-width="0" /><polygon clip-path="url(#border_clip)" fill="#fb3722" fill-rule="evenodd" points="618.5,326.0 680.5,326.0000000000011 680.5000000000007,289.0000000000011 618.5000000000007,289.0 618.5,326.0" stroke-width="0" /><polygon clip-path="url(#border_clip)" fill="#ef3fb6" fill-rule="evenodd" points="293.5,137.0 311.5,137.0000000000003 311.50000000000017,126.00000000000031 293.50000000000017,126.0 293.5,137.0" stroke-width="0" /><polygon clip-path="url(#border_clip)" fill="#a9b192" fill-rule="evenodd" points="595.5,408.5 681.5,408.50000000000153 681.5000000000011,342.50000000000153 595.5000000000011,342.5 595.5,408.5" stroke-width="0" /><polygon clip-path="url(#border_clip)" fill="#c4ce0f" fill-rule="evenodd" points="224.0,646.5 323.0,646.5000000000018 323.0000000000008,602.5000000000018 224.0000000000008,602.5 224.0,646.5" stroke-width="0" /><polygon clip-path="url(#border_clip)" fill="#047b5e" fill-rule="evenodd" points="107.5,160.0 137.5,160.00000000000054 137.50000000000063,125.00000000000054 107.50000000000063,125.0 107.49999999999997,160.0" stroke-width="0" /><polygon clip-path="url(#border_clip)" fill="#e82d18" fill-rule="evenodd" points="74.0,167.0 161.0,167.0000000000016 161.0000000000006,134.0000000000016 74.00000000000057,133.99999999999997 73.99999999999994,166.99999999999997" stroke-width="0" /><polygon clip-path="url(#border_clip)" fill="#e71bd2" fill-rule="evenodd" points="605.0,294.0 692.0,294.0000000000016 692.0000000000007,255.00000000000162 605.0000000000007,255.0 605.0,294.0" stroke-width="0" /><polygon clip-path="url(#border_clip)" fill="#288946" fill-rule="evenodd" points="291.5,210.5 349.5,210.50000000000108 349.50000000000074,170.50000000000108 291.50000000000074,170.49999999999997 291.5,210.49999999999997" stroke-width="0" /><polygon clip-path="url(#border_clip)" fill="#464010" fill-rule="evenodd" points="218.0,134.5 227.0,134.50000000000017 227.00000000000142,60.50000000000017 218.00000000000142,60.5 218.0,134.5" stroke-width="0" /><polygon clip-path="url(#border_clip)" fill="#213dd1" fill-rule="evenodd" points="511.5,649.0 519.5,649.0000000000002 519.5000000000007,612.0000000000002 511.5000000000007,612.0 511.5,649.0" stroke-width="0" /><polygon clip-path="url(#border_clip)" fill="#134dcb" fill-rule="evenodd" points="583.5,275.0 655.5,275.0000000000014 655.5000000000016,196.00000000000142 583.5000000000016,196.0 583.5,275.0" stroke-width="0" /><polygon clip-path="url(#border_clip)" fill="#f42a4e" fill-rule="evenodd" points="216.0,200.0 279.0,200.00000000000125 279.0000000000013,135.00000000000125 216.0000000000013,135.0 216.0,200.0" stroke-width="0" /><polygon clip-path="url(#border_clip)" fill="#8861ab" fill-rule="evenodd" points="280.5,513.5 288.5,513.5000000000002 288.5000000000003,499.50000000000017 280.5000000000003,499.5 280.5,513.5" stroke-width="0" /><polygon clip-path="url(#border_clip)" fill="#41fbae" fill-rule="evenodd" points="509.5,174.5 589.5,174.50000000000162 589.5000000000002,162.50000000000162 509.5000000000002,162.49999999999997 509.5,174.49999999999997" stroke-width="0" /><polygon clip-path="url(#border_clip)" fill="#271607" fill-rule="evenodd" points="538.0,79.0 593.0,79.00000000000114 593.0000000000011,22.000000000001137 538.0000000000011,22.0 538.0,79.0" stroke-width="0" /><polygon clip-path="url(#border_clip)" fill="#e3d08b" fill-rule="evenodd" points="106.5,572.5 132.5,572.5000000000006 132.50000000000205,474.50000000000057 106.50000000000205,474.5 106.5,572.5" stroke-width="0" /><polygon clip-path="url(#border_clip)" fill="#0131ba" fill-rule="evenodd" points="54.0,529.5 121.0,529.5000000000014 121.00000000000114,475.5000000000014 54.00000000000114,475.5 54.0,529.5" stroke-width="0" /><polygon clip-path="url(#border_clip)" fill="#3884bd" fill-rule="evenodd" points="351.5,212.0 375.5,212.0000000000005 375.5000000000007,179.0000000000005 351.5000000000007,179.0 351.5,212.0" stroke-width="0" /><polygon clip-path="url(#border_clip)" fill="#055ea9" fill-rule="evenodd" points="43.0,404.5 110.0,404.5000000000014 110.00000000000185,318.5000000000014 43.00000000000182,318.5 42.99999999999994,404.5" stroke-width="0" /><polygon clip-path="url(#border_clip)" fill="#a2c357" fill-rule="evenodd" points="542.0,584.5 609.0,584.5000000000015 609.0000000000016,510.5000000000015 542.0000000000016,510.5 542.0,584.5" stroke-width="0" /><polygon clip-path="url(#border_clip)" fill="#d266fe" fill-rule="evenodd" points="538.5,377.0 552.5,377.0000000000003 552.5000000000018,296.00000000000034 538.5000000000018,296.0 538.5,377.0" stroke-width="0" /><polygon clip-path="url(#border_clip)" fill="#042211" fill-rule="evenodd" points="17.0,586.5 110.0,586.500000000002 110.00000000000102,540.500000000002 17.000000000001023,540.5 17.0,586.5" stroke-width="0" /><polygon clip-path="url(#border_clip)" fill="#5936eb" fill-rule="evenodd" points="57.0,595.0 102.0,595.000000000001 102.00000000000011,590.000000000001 57.000000000000114,590.0 57.0,595.0" stroke-width="0" /><polygon clip-path="url(#border_clip)" fill="#852307" fill-rule="evenodd" points="481.0,358.5 492.0,358.5000000000002 492.00000000000017,350.5000000000002 481.00000000000017,350.5 481.0,358.5" stroke-width="0" /><polygon clip-path="url(#border_clip)" fill="#fbfb00" fill-rule="evenodd" points="76.0,119.5 129.0,119.50000000000122 129.00000000000185,39.50000000000125 76.00000000000182,39.5 75.99999999999994,119.5" stroke-width="0" /><polygon clip-path="url(#border_clip)" fill="#5888e2" fill-rule="evenodd" points="403.0,518.5 468.0,518.5000000000015 468.00000000000216,424.5000000000015 403.00000000000216,424.5 403.0,518.5" stroke-width="0" /><polygon clip-path="url(#border_clip)" fill="#7b6bbc" fill-rule="evenodd" points="59.0,82.5 136.0,82.50000000000182 136.00000000000043,64.50000000000182 59.000000000000455,64.5 59.0,82.5" stroke-width="0" /><polygon clip-path="url(#border_clip)" fill="#a2dfe6" fill-rule="evenodd" points="279.5,627.5 337.5,627.5000000000014 337.5000000000003,615.5000000000014 279.5000000000003,615.5 279.5,627.5" stroke-width="0" /><polygon clip-path="url(#border_clip)" fill="#e83b3d" fill-rule="evenodd" points="189.0,649.0 208.0,649.0000000000005 208.0000000000015,586.0000000000005 189.0000000000015,586.0 188.99999999999997,649.0" stroke-width="0" /><polygon clip-path="url(#border_clip)" fill="#a4dd84" fill-rule="evenodd" points="397.0,647.5 452.0,647.5000000000014 452.00000000000244,547.5000000000014 397.00000000000244,547.5 397.0,647.5" stroke-width="0" /><polyline clip-path="url(#border_clip)" fill="none" points="480.5,419.5 556.5,419.5 556.5,401.5 480.5,401.5 480.5,419.5" stroke="black" stroke-linecap="round" stroke-width="1" /><polyline clip-path="url(#border_clip)" fill="none" points="57.5,264.5 139.5,264.5 139.50000000000003,208.5 57.5,208.49999999999997 57.5,264.5" stroke="black" stroke-linecap="round" stroke-width="1" /><polyline clip-path="url(#border_clip)" fill="none" points="130.5,166.5 218.5,166.50000000000006 218.50000000000006,78.50000000000006 130.50000000000006,78.5 130.5,166.5" stroke="black" stroke-linecap="round" stroke-width="1" /><polyline clip-path="url(#border_clip)" fill="none" points="381.5,290.5 479.5,290.50000000000006 479.5,252.50000000000006 381.5,252.5 381.5,290.5" stroke="black" stroke-linecap="round" stroke-width="1" /><polyline clip-path="url(#border_clip)" fill="none" points="142.0,586.5 237.0,586.5000000000001 237.00000000000006,544.5000000000001 142.00000000000006,544.5 142.0,586.5" stroke="black" stroke-linecap="round" stroke-width="1" /><polyline clip-path="url(#border_clip)" fill="none" points="519.0,198.0 618.0,198.0000000000001 618.0,179.0000000000001 519.0,178.99999999999997 519.0,197.99999999999997" stroke="black" stroke-linecap="round" stroke-width="1" /><polyline clip-path="url(#border_clip)" fill="none" points="369.5,654.0 427.5,654.0 427.5000000000001,575.0 369.5000000000001,575.0 369.5,654.0" stroke="black" stroke-linecap="round" stroke-width="1" /><polyline clip-path="url(#border_clip)" fill="none" points="340.5,315.5 404.5,315.5000000000001 404.50000000000017,231.5000000000001 340.50000000000017,231.5 340.5,315.5" stroke="black" stroke-linecap="round" stroke-width="1" /><polyline clip-path="url(#border_clip)" fill="none" points="551.5,362.5 569.5,362.50000000000006 569.5,356.50000000000006 551.5,356.5 551.5,362.5" stroke="black" stroke-linecap="round" stroke-width="1" /><polyline clip-path="url(#border_clip)" fill="none" points="144.0,578.5 157.0,578.5 157.00000000000017,498.5 144.00000000000017,498.5 143.99999999999997,578.5" stroke="black" stroke-linecap="round" stroke-width="1" /><polyline clip-path="url(#border_clip)" fill="none" points="165.5,651.0 235.5,651.0000000000002 235.50000000000017,586.0000000000002 165.50000000000017,586.0 165.5,651.0" stroke="black" stroke-linecap="round" stroke-width="1" /><polyline clip-path="url(#border_clip)" fill="none" points="400.5,396.0 408.5,396.0 408.50000000000017,341.0 400.50000000000017,341.0 400.5,396.0" stroke="black" stroke-linecap="round" stroke-width="1" /><polyline clip-path="url(#border_clip)" fill="none" points="552.0,301.5 641.0,301.5000000000003 641.0000000000002,237.50000000000026 552.0000000000002,237.5 552.0,301.5" stroke="black" stroke-linecap="round" stroke-width="1" /><polyline clip-path="url(#border_clip)" fill="none" points="188.5,342.5 244.5,342.50000000000017 244.50000000000003,332.50000000000017 188.50000000000003,332.5 188.5,342.5" stroke="black" stroke-linecap="round" stroke-width="1" /><polyline clip-path="url(#border_clip)" fill="none" points="503.0,169.0 542.0,169.00000000000014 542.0000000000001,130.00000000000014 503.0000000000001,130.0 503.0,169.0" stroke="black" stroke-linecap="round" stroke-width="1" /><polyline clip-path="url(#border_clip)" fill="none" points="117.5,494.0 187.5,494.0000000000002 187.50000000000028,417.0000000000002 117.50000000000028,417.0 117.5,494.0" stroke="black" stroke-linecap="round" stroke-width="1" /><polyline clip-path="url(#border_clip)" fill="none" points="280.0,93.5 297.0,93.50000000000006 297.0000000000001,57.50000000000006 280.0000000000001,57.5 280.0,93.5" stroke="black" stroke-linecap="round" stroke-width="1" /><polyline clip-path="url(#border_clip)" fill="none" points="319.5,226.5 373.5,226.50000000000023 373.50000000000006,212.50000000000023 319.50000000000006,212.5 319.5,226.5" stroke="black" stroke-linecap="round" stroke-width="1" /><polyline clip-path="url(#border_clip)" fill="none" points="129.5,400.5 175.5,400.5000000000002 175.50000000000014,370.5000000000002 129.50000000000014,370.5 129.5,400.5" stroke="black" stroke-linecap="round" stroke-width="1" /><polyline clip-path="url(#border_clip)" fill="none" points="537.0,168.5 600.0,168.50000000000028 600.0000000000001,150.50000000000028 537.0000000000001,150.49999999999997 537.0,168.49999999999997" stroke="black" stroke-linecap="round" stroke-width="1" /><polyline clip-path="url(#border_clip)" fill="none" points="295.5,78.0 315.5,78.00000000000011 315.5000000000001,57.000000000000114 295.5000000000001,57.0 295.5,78.0" stroke="black" stroke-linecap="round" stroke-width="1" /><polyline clip-path="url(#border_clip)" fill="none" points="374.5,220.0 412.5,220.0000000000002 412.50000000000045,137.0000000000002 374.50000000000045,137.0 374.5,220.0" stroke="black" stroke-linecap="round" stroke-width="1" /><polyline clip-path="url(#border_clip)" fill="none" points="455.0,235.5 540.0,235.50000000000045 540.0000000000002,191.50000000000045 455.0000000000002,191.5 455.0,235.5" stroke="black" stroke-linecap="round" stroke-width="1" /><polyline clip-path="url(#border_clip)" fill="none" points="357.5,516.5 425.5,516.5000000000003 425.50000000000017,488.50000000000034 357.50000000000017,488.5 357.5,516.5" stroke="black" stroke-linecap="round" stroke-width="1" /><polyline clip-path="url(#border_clip)" fill="none" points="489.0,102.0 572.0,102.00000000000048 572.0000000000005,17.000000000000455 489.0000000000005,16.999999999999943 489.0,101.99999999999994" stroke="black" stroke-linecap="round" stroke-width="1" /><polyline clip-path="url(#border_clip)" fill="none" points="574.5,437.5 586.5,437.50000000000006 586.5000000000003,377.50000000000006 574.5000000000003,377.5 574.5,437.5" stroke="black" stroke-linecap="round" stroke-width="1" /><polyline clip-path="url(#border_clip)" fill="none" points="546.0,433.0 551.0,433.0 551.0000000000002,390.0 546.0000000000002,390.0 546.0,433.0" stroke="black" stroke-linecap="round" stroke-width="1" /><polyline clip-path="url(#border_clip)" fill="none" points="479.0,377.0 518.0,377.0000000000003 518.0,368.0000000000003 479.00000000000006,368.0 479.0,377.0" stroke="black" stroke-linecap="round" stroke-width="1" /><polyline clip-path="url(#border_clip)" fill="none" points="158.0,665.5 217.0,665.5000000000005 217.00000000000034,615.5000000000005 158.00000000000034,615.5 158.0,665.5" stroke="black" stroke-linecap="round" stroke-width="1" /><polyline clip-path="url(#border_clip)" fill="none" points="73.5,562.0 85.5,562.0000000000001 85.50000000000028,523.0000000000001 73.50000000000028,523.0 73.5,562.0" stroke="black" stroke-linecap="round" stroke-width="1" /><polyline clip-path="url(#border_clip)" fill="none" points="270.5,590.0 294.5,590.0000000000002 294.5000000000001,577.0000000000002 270.5000000000001,577.0 270.5,590.0" stroke="black" stroke-linecap="round" stroke-width="1" /><polyline clip-path="url(#border_clip)" fill="none" points="27.5,414.5 115.5,414.5000000000007 115.50000000000043,358.5000000000007 27.500000000000455,358.5 27.5,414.5" stroke="black" stroke-linecap="round" stroke-width="1" /><polyline clip-path="url(#border_clip)" fill="none" points="444.0,544.5 517.0,544.5000000000006 517.0000000000002,512.5000000000006 444.0000000000002,512.5 444.0,544.5" stroke="black" stroke-linecap="round" stroke-width="1" /><polyline clip-path="url(#border_clip)" fill="none" points="264.5,492.0 310.5,492.00000000000034 310.5000000000007,411.00000000000034 264.5000000000007,411.0 264.5,492.0" stroke="black" stroke-linecap="round" stroke-width="1" /><polyline clip-path="url(#border_clip)" fill="none" points="331.5,203.5 379.5,203.5000000000004 379.5000000000001,189.5000000000004 331.5000000000001,189.5 331.5,203.5" stroke="black" stroke-linecap="round" stroke-width="1" /><polyline clip-path="url(#border_clip)" fill="none" points="231.5,157.0 253.5,157.0000000000002 253.50000000000023,130.0000000000002 231.50000000000023,130.0 231.5,157.0" stroke="black" stroke-linecap="round" stroke-width="1" /><polyline clip-path="url(#border_clip)" fill="none" points="310.0,177.0 375.0,177.00000000000057 375.0000000000006,108.00000000000057 310.0000000000006,108.0 310.0,177.0" stroke="black" stroke-linecap="round" stroke-width="1" /><polyline clip-path="url(#border_clip)" fill="none" points="373.5,518.0 423.5,518.0000000000005 423.5000000000002,491.00000000000045 373.5000000000002,491.0 373.5,518.0" stroke="black" stroke-linecap="round" stroke-width="1" /><polyline clip-path="url(#border_clip)" fill="none" points="511.5,153.5 563.5,153.50000000000048 563.5000000000005,105.50000000000048 511.50000000000045,105.5 511.5,153.5" stroke="black" stroke-linecap="round" stroke-width="1" /><polyline clip-path="url(#border_clip)" fill="none" points="381.5,394.5 471.5,394.50000000000085 471.50000000000045,344.50000000000085 381.50000000000045,344.5 381.5,394.5" stroke="black" stroke-linecap="round" stroke-width="1" /><polyline clip-path="url(#border_clip)" fill="none" points="446.5,520.0 462.5,520.0000000000002 462.50000000000057,463.00000000000017 446.50000000000057,463.0 446.5,520.0" stroke="black" stroke-linecap="round" stroke-width="1" /><polyline clip-path="url(#border_clip)" fill="none" points="342.0,264.0 379.0,264.00000000000034 379.0000000000004,227.00000000000037 342.0000000000004,227.0 342.0,264.0" stroke="black" stroke-linecap="round" stroke-width="1" /><polyline clip-path="url(#border_clip)" fill="none" points="458.5,644.5 504.5,644.5000000000005 504.5000000000007,578.5000000000005 458.5000000000007,578.5 458.5,644.5" stroke="black" stroke-linecap="round" stroke-width="1" /><polyline clip-path="url(#border_clip)" fill="none" points="298.5,462.5 372.5,462.5000000000008 372.50000000000006,456.5000000000008 298.50000000000006,456.5 298.5,462.5" stroke="black" stroke-linecap="round" stroke-width="1" /><polyline clip-path="url(#border_clip)" fill="none" points="578.0,156.0 633.0,156.0000000000006 633.0000000000001,147.0000000000006 578.0000000000001,147.0 578.0,156.0" stroke="black" stroke-linecap="round" stroke-width="1" /><polyline clip-path="url(#border_clip)" fill="none" points="226.0,140.5 235.0,140.50000000000009 235.00000000000009,132.50000000000009 226.00000000000009,132.49999999999997 226.0,140.49999999999997" stroke="black" stroke-linecap="round" stroke-width="1" /><polyline clip-path="url(#border_clip)" fill="none" points="610.0,452.5 649.0,452.50000000000045 649.0000000000003,424.50000000000045 610.0000000000003,424.5 610.0,452.5" stroke="black" stroke-linecap="round" stroke-width="1" /><polyline clip-path="url(#border_clip)" fill="none" points="278.5,281.5 356.5,281.5000000000009 356.50000000000017,265.5000000000009 278.50000000000017,265.5 278.5,281.5" stroke="black" stroke-linecap="round" stroke-width="1" /><polyline clip-path="url(#border_clip)" fill="none" points="446.0,327.0 495.0,327.00000000000057 495.0000000000002,308.00000000000057 446.0000000000002,308.0 446.0,327.0" stroke="black" stroke-linecap="round" stroke-width="1" /><polyline clip-path="url(#border_clip)" fill="none" points="478.0,96.0 539.0,96.00000000000074 539.0000000000005,61.00000000000074 478.00000000000045,61.0 478.0,96.0" stroke="black" stroke-linecap="round" stroke-width="1" /><polyline clip-path="url(#border_clip)" fill="none" points="130.5,194.5 190.5,194.50000000000074 190.50000000000105,108.50000000000074 130.50000000000105,108.5 130.49999999999997,194.5" stroke="black" stroke-linecap="round" stroke-width="1" /><polyline clip-path="url(#border_clip)" fill="none" points="468.5,412.0 546.5,412.00000000000097 546.5000000000006,369.00000000000097 468.50000000000057,369.0 468.5,412.0" stroke="black" stroke-linecap="round" stroke-width="1" /><polyline clip-path="url(#border_clip)" fill="none" points="40.0,215.5 77.0,215.50000000000048 77.00000000000085,149.50000000000048 40.00000000000085,149.5 40.0,215.5" stroke="black" stroke-linecap="round" stroke-width="1" /><polyline clip-path="url(#border_clip)" fill="none" points="177.5,622.0 187.5,622.0000000000001 187.5000000000005,583.0000000000001 177.5000000000005,583.0 177.5,622.0" stroke="black" stroke-linecap="round" stroke-width="1" /><polyline clip-path="url(#border_clip)" fill="none" points="588.5,535.0 618.5,535.0000000000005 618.5000000000011,444.0000000000004 588.5000000000011,444.0 588.5,535.0" stroke="black" stroke-linecap="round" stroke-width="1" /><polyline clip-path="url(#border_clip)" fill="none" points="414.5,520.5 494.5,520.5000000000011 494.50000000000034,494.5000000000011 414.50000000000034,494.5 414.5,520.5" stroke="black" stroke-linecap="round" stroke-width="1" /><polyline clip-path="url(#border_clip)" fill="none" points="472.0,388.5 563.0,388.50000000000125 563.0000000000007,342.50000000000125 472.0000000000006,342.5 472.0,388.5" stroke="black" stroke-linecap="round" stroke-width="1" /><polyline clip-path="url(#border_clip)" fill="none" points="328.5,197.5 378.5,197.5000000000007 378.50000000000114,117.50000000000071 328.50000000000114,117.5 328.5,197.5" stroke="black" stroke-linecap="round" stroke-width="1" /><polyline clip-path="url(#border_clip)" fill="none" points="476.5,320.5 522.5,320.5000000000007 522.5000000000008,264.5000000000007 476.5000000000008,264.5 476.5,320.5" stroke="black" stroke-linecap="round" stroke-width="1" /><polyline clip-path="url(#border_clip)" fill="none" points="600.0,570.5 699.0,570.5000000000014 699.0000000000011,490.5000000000014 600.0000000000011,490.5 600.0,570.5" stroke="black" stroke-linecap="round" stroke-width="1" /><polyline clip-path="url(#border_clip)" fill="none" points="373.5,389.5 437.5,389.5000000000009 437.50000000000045,359.5000000000009 373.50000000000045,359.5 373.5,389.5" stroke="black" stroke-linecap="round" stroke-width="1" /><polyline clip-path="url(#border_clip)" fill="none" points="7.5,293.0 95.5,293.0000000000013 95.5000000000006,254.0000000000013 7.500000000000568,254.0 7.5,293.0" stroke="black" stroke-linecap="round" stroke-width="1" /><polyline clip-path="url(#border_clip)" fill="none" points="568.0,310.0 623.0,310.00000000000085 623.0000000000005,281.00000000000085 568.0000000000005,281.0 568.0,310.0" stroke="black" stroke-linecap="round" stroke-width="1" /><polyline clip-path="url(#border_clip)" fill="none" points="335.0,438.5 386.0,438.5000000000008 386.0000000000009,378.5000000000008 335.0000000000009,378.5 335.0,438.5" stroke="black" stroke-linecap="round" stroke-width="1" /><polyline clip-path="url(#border_clip)" fill="none" points="165.5,305.5 265.5,305.5000000000016 265.50000000000034,283.5000000000016 165.50000000000034,283.5 165.5,305.5" stroke="black" stroke-linecap="round" stroke-width="1" /><polyline clip-path="url(#border_clip)" fill="none" points="337.5,523.0 387.5,523.0000000000008 387.5000000000003,504.0000000000008 337.5000000000003,504.0 337.5,523.0" stroke="black" stroke-linecap="round" stroke-width="1" /><polyline clip-path="url(#border_clip)" fill="none" points="353.5,487.0 373.5,487.00000000000034 373.50000000000153,392.00000000000034 353.50000000000153,392.0 353.5,487.0" stroke="black" stroke-linecap="round" stroke-width="1" /><polyline clip-path="url(#border_clip)" fill="none" points="274.0,402.5 295.0,402.50000000000034 295.0000000000011,336.50000000000034 274.0000000000011,336.5 274.0,402.5" stroke="black" stroke-linecap="round" stroke-width="1" /><polyline clip-path="url(#border_clip)" fill="none" points="545.0,572.5 642.0,572.5000000000016 642.0000000000011,508.5000000000016 545.0000000000011,508.5 545.0,572.5" stroke="black" stroke-linecap="round" stroke-width="1" /><polyline clip-path="url(#border_clip)" fill="none" points="376.5,411.0 382.5,411.0000000000001 382.5000000000014,326.0000000000001 376.5000000000014,326.0 376.5,411.0" stroke="black" stroke-linecap="round" stroke-width="1" /><polyline clip-path="url(#border_clip)" fill="none" points="618.5,326.0 680.5,326.0000000000011 680.5000000000007,289.0000000000011 618.5000000000007,289.0 618.5,326.0" stroke="black" stroke-linecap="round" stroke-width="1" /><polyline clip-path="url(#border_clip)" fill="none" points="293.5,137.0 311.5,137.0000000000003 311.50000000000017,126.00000000000031 293.50000000000017,126.0 293.5,137.0" stroke="black" stroke-linecap="round" stroke-width="1" /><polyline clip-path="url(#border_clip)" fill="none" points="595.5,408.5 681.5,408.50000000000153 681.5000000000011,342.50000000000153 595.5000000000011,342.5 595.5,408.5" stroke="black" stroke-linecap="round" stroke-width="1" /><polyline clip-path="url(#border_clip)" fill="none" points="224.0,646.5 323.0,646.5000000000018 323.0000000000008,602.5000000000018 224.0000000000008,602.5 224.0,646.5" stroke="black" stroke-linecap="round" stroke-width="1" /><polyline clip-path="url(#border_clip)" fill="none" points="107.5,160.0 137.5,160.00000000000054 137.50000000000063,125.00000000000054 107.50000000000063,125.0 107.49999999999997,160.0" stroke="black" stroke-linecap="round" stroke-width="1" /><polyline clip-path="url(#border_clip)" fill="none" points="74.0,167.0 161.0,167.0000000000016 161.0000000000006,134.0000000000016 74.00000000000057,133.99999999999997 73.99999999999994,166.99999999999997" stroke="black" stroke-linecap="round" stroke-width="1" /><polyline clip-path="url(#border_clip)" fill="none" points="605.0,294.0 692.0,294.0000000000016 692.0000000000007,255.00000000000162 605.0000000000007,255.0 605.0,294.0" stroke="black" stroke-linecap="round" stroke-width="1" /><polyline clip-path="url(#border_clip)" fill="none" points="291.5,210.5 349.5,210.50000000000108 349.50000000000074,170.50000000000108 291.50000000000074,170.49999999999997 291.5,210.49999999999997" stroke="black" stroke-linecap="round" stroke-width="1" /><polyline clip-path="url(#border_clip)" fill="none" points="218.0,134.5 227.0,134.50000000000017 227.00000000000142,60.50000000000017 218.00000000000142,60.5 218.0,134.5" stroke="black" stroke-linecap="round" stroke-width="1" /><polyline clip-path="url(#border_clip)" fill="none" points="511.5,649.0 519.5,649.0000000000002 519.5000000000007,612.0000000000002 511.5000000000007,612.0 511.5,649.0" stroke="black" stroke-linecap="round" stroke-width="1" /><polyline clip-path="url(#border_clip)" fill="none" points="583.5,275.0 655.5,275.0000000000014 655.5000000000016,196.00000000000142 583.5000000000016,196.0 583.5,275.0" stroke="black" stroke-linecap="round" stroke-width="1" /><polyline clip-path="url(#border_clip)" fill="none" points="216.0,200.0 279.0,200.00000000000125 279.0000000000013,135.00000000000125 216.0000000000013,135.0 216.0,200.0" stroke="black" stroke-linecap="round" stroke-width="1" /><polyline clip-path="url(#border_clip)" fill="none" points="280.5,513.5 288.5,513.5000000000002 288.5000000000003,499.50000000000017 280.5000000000003,499.5 280.5,513.5" stroke="black" stroke-linecap="round" stroke-width="1" /><polyline clip-path="url(#border_clip)" fill="none" points="509.5,174.5 589.5,174.50000000000162 589.5000000000002,162.50000000000162 509.5000000000002,162.49999999999997 509.5,174.49999999999997" stroke="black" stroke-linecap="round" stroke-width="1" /><polyline clip-path="url(#border_clip)" fill="none" points="538.0,79.0 593.0,79.00000000000114 593.0000000000011,22.000000000001137 538.0000000000011,22.0 538.0,79.0" stroke="black" stroke-linecap="round" stroke-width="1" /><polyline clip-path="url(#border_clip)" fill="none" points="106.5,572.5 132.5,572.5000000000006 132.50000000000205,474.50000000000057 106.50000000000205,474.5 106.5,572.5" stroke="black" stroke-linecap="round" stroke-width="1" /><polyline clip-path="url(#border_clip)" fill="none" points="54.0,529.5 121.0,529.5000000000014 121.00000000000114,475.5000000000014 54.00000000000114,475.5 54.0,529.5" stroke="black" stroke-linecap="round" stroke-width="1" /><polyline clip-path="url(#border_clip)" fill="none" points="351.5,212.0 375.5,212.0000000000005 375.5000000000007,179.0000000000005 351.5000000000007,179.0 351.5,212.0" stroke="black" stroke-linecap="round" stroke-width="1" /><polyline clip-path="url(#border_clip)" fill="none" points="43.0,404.5 110.0,404.5000000000014 110.00000000000185,318.5000000000014 43.00000000000182,318.5 42.99999999999994,404.5" stroke="black" stroke-linecap="round" stroke-width="1" /><polyline clip-path="url(#border_clip)" fill="none" points="542.0,584.5 609.0,584.5000000000015 609.0000000000016,510.5000000000015 542.0000000000016,510.5 542.0,584.5" stroke="black" stroke-linecap="round" stroke-width="1" /><polyline clip-path="url(#border_clip)" fill="none" points="538.5,377.0 552.5,377.0000000000003 552.5000000000018,296.00000000000034 538.5000000000018,296.0 538.5,377.0" stroke="black" stroke-linecap="round" stroke-width="1" /><polyline clip-path="url(#border_clip)" fill="none" points="17.0,586.5 110.0,586.500000000002 110.00000000000102,540.500000000002 17.000000000001023,540.5 17.0,586.5" stroke="black" stroke-linecap="round" stroke-width="1" /><polyline clip-path="url(#border_clip)" fill="none" points="57.0,595.0 102.0,595.000000000001 102.00000000000011,590.000000000001 57.000000000000114,590.0 57.0,595.0" stroke="black" stroke-linecap="round" stroke-width="1" /><polyline clip-path="url(#border_clip)" fill="none" points="481.0,358.5 492.0,358.5000000000002 492.00000000000017,350.5000000000002 481.00000000000017,350.5 481.0,358.5" stroke="black" stroke-linecap="round" stroke-width="1" /><polyline clip-path="url(#border_clip)" fill="none" points="76.0,119.5 129.0,119.50000000000122 129.00000000000185,39.50000000000125 76.00000000000182,39.5 75.99999999999994,119.5" stroke="black" stroke-linecap="round" stroke-width="1" /><polyline clip-path="url(#border_clip)" fill="none" points="403.0,518.5 468.0,518.5000000000015 468.00000000000216,424.5000000000015 403.00000000000216,424.5 403.0,518.5" stroke="black" stroke-linecap="round" stroke-width="1" /><polyline clip-path="url(#border_clip)" fill="none" points="59.0,82.5 136.0,82.50000000000182 136.00000000000043,64.50000000000182 59.000000000000455,64.5 59.0,82.5" stroke="black" stroke-linecap="round" stroke-width="1" /><polyline clip-path="url(#border_clip)" fill="none" points="279.5,627.5 337.5,627.5000000000014 337.5000000000003,615.5000000000014 279.5000000000003,615.5 279.5,627.5" stroke="black" stroke-linecap="round" stroke-width="1" /><polyline clip-path="url(#border_clip)" fill="none" points="189.0,649.0 208.0,649.0000000000005 208.0000000000015,586.0000000000005 189.0000000000015,586.0 188.99999999999997,649.0" stroke="black" stroke-linecap="round" stroke-width="1" /><polyline clip-path="url(#border_clip)" fill="none" points="397.0,647.5 452.0,647.5000000000014 452.00000000000244,547.5000000000014 397.00000000000244,547.5 397.0,647.5" stroke="black" stroke-linecap="round" stroke-width="1" /></svg>