<?xml version="1.0" encoding="utf-8" ?>
<svg baseProfile="full" height="700px" version="1.1" width="700px" xmlns="http://www.w3.org/2000/svg" xmlns:ev="http://www.w3.org/2001/xml-events" xmlns:xlink="http://www.w3.org/1999/xlink"><defs><clipPath id="border_clip"><rect height="700" width="700" x="0" y="0" /></clipPath></defs><polygon clip-path="url(#border_clip)" fill="#fb033a" fill-rule="evenodd" points="51.0,403.0 136.0,403.0 136.0,348.0 51.0,348.0 51.0,403.0" stroke-width="0" /><polygon clip-path="url(#border_clip)" fill="#98b281" fill-rule="evenodd" points="503.5,369.5 515.5,369.5 515.5,345.5 503.5,345.5 503.5,369.5" stroke-width="0" /><polygon clip-path="url(#border_clip)" fill="#51b59d" fill-rule="evenodd" points="425.5,504.5 457.5,504.5 457.50000000000006,432.5 425.50000000000006,432.5 425.5,504.5" stroke-width="0" /><polygon clip-path="url(#border_clip)" fill="#3d36e1" fill-rule="evenodd" points="105.5,317.0 165.5,317.00000000000006 165.50000000000003,268.00000000000006 105.50000000000003,268.0 105.49999999999997,317.0" stroke-width="0" /><polygon clip-path="url(#border_clip)" fill="#ae8544" fill-rule="evenodd" points="419.0,165.0 460.0,165.00000000000003 460.0,144.00000000000003 419.0,143.99999999999997 419.0,164.99999999999997" stroke-width="0" /><polygon clip-path="url(#border_clip)" fill="#bd40df" fill-rule="evenodd" points="495.5,106.0 527.5,106.00000000000003 527.5,97.00000000000003 495.5,96.99999999999997 495.5,105.99999999999997" stroke-width="0" /><polygon clip-path="url(#border_clip)" fill="#882a44" fill-rule="evenodd" points="457.0,214.5 468.0,214.50000000000003 468.0000000000001,126.50000000000003 457.0000000000001,126.5 457.0,214.5" stroke-width="0" /><polygon clip-path="url(#border_clip)" fill="#804429" fill-rule="evenodd" points="242.0,376.0 309.0,376.0000000000001 309.0,363.0000000000001 242.00000000000003,363.0 242.0,376.0" stroke-width="0" /><polygon clip-path="url(#border_clip)" fill="#3f06d3" fill-rule="evenodd" points="488.0,489.5 573.0,489.50000000000017 573.0000000000002,407.50000000000017 488.00000000000017,407.5 488.0,489.5" stroke-width="0" /><polygon clip-path="url(#border_clip)" fill="#58308f" fill-rule="evenodd" points="426.5,407.0 486.5,407.0000000000001 486.50000000000006,376.0000000000001 426.50000000000006,376.0 426.5,407.0" stroke-width="0" /><polygon clip-path="url(#border_clip)" fill="#f6cfca" fill-rule="evenodd" points="439.5,245.0 453.5,245.00000000000003 453.50000000000006,230.00000000000003 439.50000000000006,230.0 439.5,245.0" stroke-width="0" /><polygon clip-path="url(#border_clip)" fill="#a486be" fill-rule="evenodd" points="49.5,562.5 131.5,562.5000000000002 131.5000000000002,488.5000000000002 49.50000000000023,488.5 49.5,562.5" stroke-width="0" /><polygon clip-path="url(#border_clip)" fill="#1c6099" fill-rule="evenodd" points="136.0,104.0 151.0,104.00000000000006 151.00000000000009,73.00000000000006 136.00000000000009,73.0 136.0,104.0" stroke-width="0" /><polygon clip-path="url(#border_clip)" fill="#f8fe0f" fill-rule="evenodd" points="165.0,632.0 172.0,632.0 172.0000000000002,567.0 165.0000000000002,567.0 164.99999999999997,632.0" stroke-width="0" /><polygon clip-path="url(#border_clip)" fill="#406a44" fill-rule="evenodd" points="114.0,404.5 171.0,404.5000000000002 171.00000000000009,376.5000000000002 114.00000000000009,376.5 113.99999999999997,404.5" stroke-width="0" /><polygon clip-path="url(#border_clip)" fill="#f8e4a0" fill-rule="evenodd" points="75.0,535.5 146.0,535.5000000000002 146.0000000000001,503.5000000000002 75.00000000000011,503.5 75.0,535.5" stroke-width="0" /><polygon clip-path="url(#border_clip)" fill="#3f8cb3" fill-rule="evenodd" points="509.5,514.5 569.5,514.5000000000002 569.5000000000001,490.5000000000002 509.5000000000001,490.5 509.5,514.5" stroke-width="0" /><polygon clip-path="url(#border_clip)" fill="#06d3e7" fill-rule="evenodd" points="304.5,359.0 400.5,359.0000000000004 400.50000000000034,282.0000000000004 304.50000000000034,282.0 304.5,359.0" stroke-width="0" /><polygon clip-path="url(#border_clip)" fill="#9505c5" fill-rule="evenodd" points="277.0,182.5 290.0,182.50000000000006 290.00000000000034,110.50000000000006 277.00000000000034,110.5 277.0,182.5" stroke-width="0" /><polygon clip-path="url(#border_clip)" fill="#d0b4bd" fill-rule="evenodd" points="88.0,643.0 93.0,643.0 93.00000000000017,612.0 88.00000000000017,612.0 88.0,643.0" stroke-width="0" /><polygon clip-path="url(#border_clip)" fill="#6363c5" fill-rule="evenodd" points="394.5,647.0 492.5,647.0000000000005 492.5000000000001,630.0000000000005 394.5000000000001,630.0 394.5,647.0" stroke-width="0" /><polygon clip-path="url(#border_clip)" fill="#aba935" fill-rule="evenodd" points="583.0,350.0 608.0,350.0000000000001 608.0000000000005,269.0000000000001 583.0000000000005,269.0 583.0,350.0" stroke-width="0" /><polygon clip-path="url(#border_clip)" fill="#5ae2e0" fill-rule="evenodd" points="421.5,499.0 501.5,499.00000000000045 501.50000000000034,432.00000000000045 421.50000000000034,432.0 421.5,499.0" stroke-width="0" /><polygon clip-path="url(#border_clip)" fill="#2fe57c" fill-rule="evenodd" points="363.0,557.5 380.0,557.5000000000001 380.0000000000004,483.5000000000001 363.0000000000004,483.5 363.0,557.5" stroke-width="0" /><polygon clip-path="url(#border_clip)" fill="#7d895d" fill-rule="evenodd" points="493.0,383.0 590.0,383.00000000000057 590.0000000000002,340.00000000000057 493.0000000000002,340.0 493.0,383.0" stroke-width="0" /><polygon clip-path="url(#border_clip)" fill="#60104f" fill-rule="evenodd" points="91.0,327.5 120.0,327.50000000000017 120.0000000000006,229.50000000000017 91.00000000000057,229.5 90.99999999999994,327.5" stroke-width="0" /><polygon clip-path="url(#border_clip)" fill="#6e8c02" fill-rule="evenodd" points="218.5,504.5 264.5,504.5000000000003 264.50000000000034,452.5000000000003 218.50000000000034,452.5 218.5,504.5" stroke-width="0" /><polygon clip-path="url(#border_clip)" fill="#4bb04b" fill-rule="evenodd" points="319.0,513.5 380.0,513.5000000000005 380.0000000000005,439.5000000000004 319.0000000000005,439.5 319.0,513.5" stroke-width="0" /><polygon clip-path="url(#border_clip)" fill="#b55075" fill-rule="evenodd" points="120.5,355.0 142.5,355.00000000000017 142.5000000000004,298.00000000000017 120.5000000000004,298.0 120.5,355.0" stroke-width="0" /><polygon clip-path="url(#border_clip)" fill="#bad779" fill-rule="evenodd" points="500.5,379.0 584.5,379.00000000000057 584.5000000000005,306.00000000000057 500.5000000000005,306.0 500.5,379.0" stroke-width="0" /><polygon clip-path="url(#border_clip)" fill="#529bac" fill-rule="evenodd" points="86.5,170.5 182.5,170.5000000000007 182.50000000000048,104.50000000000071 86.50000000000045,104.5 86.49999999999994,170.5" stroke-width="0" /><polygon clip-path="url(#border_clip)" fill="#8771d2" fill-rule="evenodd" points="79.5,355.5 131.5,355.5000000000004 131.50000000000034,309.5000000000004 79.50000000000034,309.5 79.5,355.5" stroke-width="0" /><polygon clip-path="url(#border_clip)" fill="#57ef58" fill-rule="evenodd" points="177.0,449.0 246.0,449.00000000000057 246.00000000000045,392.00000000000057 177.00000000000045,392.0 177.0,449.0" stroke-width="0" /><polygon clip-path="url(#border_clip)" fill="#a26430" fill-rule="evenodd" points="74.0,372.0 123.0,372.0000000000004 123.00000000000068,287.0000000000004 74.00000000000068,287.0 74.0,372.0" stroke-width="0" /><polygon clip-path="url(#border_clip)" fill="#e42697" fill-rule="evenodd" points="429.0,540.0 434.0,540.0 434.0000000000008,445.0 429.0000000000008,445.0 429.0,540.0" stroke-width="0" /><polygon clip-path="url(#border_clip)" fill="#9de739" fill-rule="evenodd" points="261.0,113.5 274.0,113.50000000000011 274.0000000000007,33.500000000000114 261.0000000000007,33.5 261.0,113.5" stroke-width="0" /><polygon clip-path="url(#border_clip)" fill="#e937db" fill-rule="evenodd" points="240.5,104.5 294.5,104.50000000000048 294.50000000000074,20.500000000000455 240.50000000000074,20.5 240.5,104.5" stroke-width="0" /><polygon clip-path="url(#border_clip)" fill="#3c3614" fill-rule="evenodd" points="209.5,156.5 221.5,156.5000000000001 221.50000000000037,116.50000000000011 209.50000000000037,116.5 209.5,156.5" stroke-width="0" /><polygon clip-path="url(#border_clip)" fill="#a1a1ae" fill-rule="evenodd" points="187.5,142.0 207.5,142.0000000000002 207.50000000000065,73.00000000000023 187.50000000000065,73.00000000000006 187.5,142.00000000000006" stroke-width="0" /><polygon clip-path="url(#border_clip)" fill="#51fb63" fill-rule="evenodd" points="207.5,312.0 301.5,312.0000000000009 301.5000000000007,241.0000000000009 207.50000000000068,241.0 207.5,312.0" stroke-width="0" /><polygon clip-path="url(#border_clip)" fill="#4ebf58" fill-rule="evenodd" points="50.5,161.5 92.5,161.5000000000004 92.50000000000023,137.5000000000004 50.50000000000023,137.49999999999997 50.5,161.49999999999997" stroke-width="0" /><polygon clip-path="url(#border_clip)" fill="#028cce" fill-rule="evenodd" points="444.5,394.0 526.5,394.0000000000008 526.5000000000002,365.0000000000008 444.5000000000003,365.0 444.5,394.0" stroke-width="0" /><polygon clip-path="url(#border_clip)" fill="#0bc06b" fill-rule="evenodd" points="193.5,120.0 273.5,120.00000000000082 273.50000000000097,27.000000000000796 193.50000000000097,26.999999999999943 193.5,119.99999999999994" stroke-width="0" /><polygon clip-path="url(#border_clip)" fill="#2e3242" fill-rule="evenodd" points="490.0,217.0 509.0,217.0000000000002 509.0000000000009,134.0000000000002 490.0000000000009,134.0 490.0,217.0" stroke-width="0" /><polygon clip-path="url(#border_clip)" fill="#409865" fill-rule="evenodd" points="246.5,494.0 284.5,494.0000000000004 284.5000000000005,447.0000000000004 246.5000000000005,447.0 246.5,494.0" stroke-width="0" /><polygon clip-path="url(#border_clip)" fill="#f6c9ea" fill-rule="evenodd" points="614.5,656.0 622.5,656.0000000000001 622.5000000000005,613.0000000000001 614.5000000000005,613.0 614.5,656.0" stroke-width="0" /><polygon clip-path="url(#border_clip)" fill="#46edef" fill-rule="evenodd" points="110.5,122.5 150.5,122.50000000000045 150.5000000000005,78.50000000000045 110.50000000000051,78.5 110.5,122.5" stroke-width="0" /><polygon clip-path="url(#border_clip)" fill="#a9ca9f" fill-rule="evenodd" points="419.0,459.0 432.0,459.00000000000017 432.00000000000085,384.00000000000017 419.00000000000085,384.0 419.0,459.0" stroke-width="0" /><polygon clip-path="url(#border_clip)" fill="#f99183" fill-rule="evenodd" points="596.5,112.0 678.5,112.00000000000097 678.5000000000007,49.000000000000966 596.5000000000007,49.0 596.5,112.0" stroke-width="0" /><polygon clip-path="url(#border_clip)" fill="#0bb8c6" fill-rule="evenodd" points="435.5,441.5 511.5,441.5000000000009 511.50000000000045,401.5000000000009 435.50000000000045,401.5 435.5,441.5" stroke-width="0" /><polygon clip-path="url(#border_clip)" fill="#a8c934" fill-rule="evenodd" points="507.5,562.0 531.5,562.0000000000002 531.5000000000011,473.0000000000003 507.50000000000114,473.0 507.5,562.0" stroke-width="0" /><polygon clip-path="url(#border_clip)" fill="#7089ca" fill-rule="evenodd" points="516.5,381.0 580.5,381.0000000000008 580.5000000000005,342.0000000000008 516.5000000000005,342.0 516.5,381.0" stroke-width="0" /><polygon clip-path="url(#border_clip)" fill="#074015" fill-rule="evenodd" points="367.0,88.0 374.0,88.00000000000011 374.00000000000034,63.000000000000114 367.00000000000034,63.0 367.0,88.0" stroke-width="0" /><polygon clip-path="url(#border_clip)" fill="#4c3282" fill-rule="evenodd" points="456.5,94.0 544.5,94.00000000000114 544.5000000000003,65.00000000000114 456.50000000000034,65.0 456.5,94.0" stroke-width="0" /><polygon clip-path="url(#border_clip)" fill="#078fe2" fill-rule="evenodd" points="214.0,83.0 253.0,83.00000000000051 253.00000000000026,64.00000000000051 214.00000000000026,64.0 214.0,83.0" stroke-width="0" /><polygon clip-path="url(#border_clip)" fill="#7c406e" fill-rule="evenodd" points="71.0,120.0 136.0,120.00000000000088 136.00000000000082,59.00000000000091 71.0000000000008,59.0 70.99999999999994,120.0" stroke-width="0" /><polygon clip-path="url(#border_clip)" fill="#1c0bcb" fill-rule="evenodd" points="430.5,242.5 464.5,242.50000000000045 464.5000000000001,234.50000000000045 430.5000000000001,234.5 430.5,242.5" stroke-width="0" /><polygon clip-path="url(#border_clip)" fill="#0b09e2" fill-rule="evenodd" points="452.0,544.0 493.0,544.0000000000006 493.0000000000008,489.00000000000057 452.0000000000008,489.0 452.0,544.0" stroke-width="0" /><polygon clip-path="url(#border_clip)" fill="#4cd110" fill-rule="evenodd" points="53.0,588.5 116.0,588.5000000000009 116.00000000000048,554.5000000000009 53.000000000000455,554.5 52.99999999999994,588.5" stroke-width="0" /><polygon clip-path="url(#border_clip)" fill="#ff3c47" fill-rule="evenodd" points="547.5,408.5 641.5,408.50000000000136 641.5000000000005,380.50000000000136 547.5000000000005,380.5 547.5,408.5" stroke-width="0" /><polygon clip-path="url(#border_clip)" fill="#3f2629" fill-rule="evenodd" points="523.0,508.0 578.0,508.0000000000008 578.0000000000014,411.0000000000008 523.0000000000014,411.0 523.0,508.0" stroke-width="0" /><polygon clip-path="url(#border_clip)" fill="#a758f6" fill-rule="evenodd" points="391.5,205.0 463.5,205.00000000000108 463.50000000000125,120.00000000000108 391.50000000000125,120.0 391.5,205.0" stroke-width="0" /><polygon clip-path="url(#border_clip)" fill="#5efed0" fill-rule="evenodd" points="458.5,491.0 512.5,491.0000000000008 512.5000000000009,428.0000000000008 458.50000000000097,428.0 458.5,491.0" stroke-width="0" /><polygon clip-path="url(#border_clip)" fill="#d7edc5" fill-rule="evenodd" points="441.5,611.5 451.5,611.5000000000002 451.50000000000045,583.5000000000002 441.50000000000045,583.5 441.5,611.5" stroke-width="0" /><polygon clip-path="url(#border_clip)" fill="#0e8eb5" fill-rule="evenodd" points="224.5,306.0 238.5,306.0000000000002 238.5000000000009,249.00000000000023 224.5000000000009,249.0 224.5,306.0" stroke-width="0" /><polygon clip-path="url(#border_clip)" fill="#cb0030" fill-rule="evenodd" points="177.0,320.5 204.0,320.50000000000045 204.00000000000017,310.50000000000045 177.00000000000017,310.5 177.0,320.5" stroke-width="0" /><polygon clip-path="url(#border_clip)" fill="#550d64" fill-rule="evenodd" points="144.5,113.0 170.5,113.00000000000043 170.50000000000074,68.00000000000045 144.50000000000074,68.00000000000006 144.5,113.00000000000006" stroke-width="0" /><polygon clip-path="url(#border_clip)" fill="#3ed7ce" fill-rule="evenodd" points="125.5,470.5 165.5,470.5000000000007 165.50000000000165,370.5000000000007 125.50000000000165,370.5 125.5,470.5" stroke-width="0" /><polygon clip-path="url(#border_clip)" fill="#477a42" fill-rule="evenodd" points="503.0,389.5 516.0,389.5000000000002 516.0000000000006,353.5000000000002 503.00000000000057,353.5 503.0,389.5" stroke-width="0" /><polygon clip-path="url(#border_clip)" fill="#7c9652" fill-rule="evenodd" points="482.5,509.0 548.5,509.00000000000114 548.5000000000003,488.00000000000114 482.50000000000034,488.0 482.5,509.0" stroke-width="0" /><polygon clip-path="url(#border_clip)" fill="#8f401b" fill-rule="evenodd" points="348.5,639.0 434.5,639.0000000000015 434.5000000000008,594.0000000000015 348.5000000000008,594.0 348.5,639.0" stroke-width="0" /><polygon clip-path="url(#border_clip)" fill="#f17dca" fill-rule="evenodd" points="461.0,574.5 538.0,574.5000000000014 538.0000000000016,486.50000000000136 461.00000000000153,486.5 461.0,574.5" stroke-width="0" /><polygon clip-path="url(#border_clip)" fill="#6975fd" fill-rule="evenodd" points="400.0,249.5 471.0,249.50000000000125 471.0000000000002,235.50000000000125 400.0000000000002,235.5 400.0,249.5" stroke-width="0" /><polygon clip-path="url(#border_clip)" fill="#61a9f2" fill-rule="evenodd" points="157.0,353.5 162.0,353.5000000000001 162.00000000000165,261.5000000000001 157.00000000000165,261.5 157.0,353.5" stroke-width="0" /><polygon clip-path="url(#border_clip)" fill="#74d964" fill-rule="evenodd" points="300.5,689.5 326.5,689.5000000000005 326.5000000000016,603.5000000000005 300.5000000000016,603.5 300.5,689.5" stroke-width="0" /><polygon clip-path="url(#border_clip)" fill="#6da595" fill-rule="evenodd" points="94.5,272.0 178.5,272.00000000000153 178.50000000000028,257.00000000000153 94.50000000000028,257.0 94.5,272.0" stroke-width="0" /><polygon clip-path="url(#border_clip)" fill="#dbf51f" fill-rule="evenodd" points="316.0,490.5 355.0,490.50000000000074 355.0000000000003,474.50000000000074 316.0000000000003,474.5 316.0,490.5" stroke-width="0" /><polygon clip-path="url(#border_clip)" fill="#307bd4" fill-rule="evenodd" points="582.5,169.5 672.5,169.5000000000017 672.5000000000014,95.5000000000017 582.5000000000014,95.5 582.5,169.5" stroke-width="0" /><polygon clip-path="url(#border_clip)" fill="#ea3bda" fill-rule="evenodd" points="355.5,573.5 401.5,573.5000000000009 401.50000000000034,555.5000000000009 355.50000000000034,555.5 355.5,573.5" stroke-width="0" /><polygon clip-path="url(#border_clip)" fill="#021dfa" fill-rule="evenodd" points="482.0,377.0 571.0,377.0000000000017 571.0000000000011,322.0000000000017 482.0000000000011,322.0 482.0,377.0" stroke-width="0" /><polygon clip-path="url(#border_clip)" fill="#d1c7e4" fill-rule="evenodd" points="307.5,690.0 385.5,690.0000000000016 385.5000000000018,597.0000000000016 307.5000000000018,597.0 307.5,690.0" stroke-width="0" /><polygon clip-path="url(#border_clip)" fill="#461e8b" fill-rule="evenodd" points="63.5,147.5 79.5,147.5000000000003 79.50000000000148,73.50000000000034 63.50000000000148,73.5 63.5,147.5" stroke-width="0" /><polygon clip-path="url(#border_clip)" fill="#7b993b" fill-rule="evenodd" points="63.0,275.0 92.0,275.00000000000057 92.00000000000176,188.00000000000057 63.00000000000176,187.99999999999997 63.0,275.0" stroke-width="0" /><polygon clip-path="url(#border_clip)" fill="#3bfdef" fill-rule="evenodd" points="599.5,216.5 607.5,216.50000000000017 607.5000000000014,152.50000000000017 599.5000000000014,152.5 599.5,216.5" stroke-width="0" /><polygon clip-path="url(#border_clip)" fill="#014199" fill-rule="evenodd" points="562.5,104.5 654.5,104.5000000000019 654.5000000000007,74.50000000000193 562.5000000000007,74.50000000000006 562.5,104.50000000000006" stroke-width="0" /><polygon clip-path="url(#border_clip)" fill="#db8fa1" fill-rule="evenodd" points="334.5,315.5 354.5,315.5000000000004 354.5000000000001,309.5000000000004 334.5000000000001,309.5 334.5,315.5" stroke-width="0" /><polygon clip-path="url(#border_clip)" fill="#b181f0" fill-rule="evenodd" points="243.5,245.5 289.5,245.50000000000097 289.500000000001,197.50000000000097 243.50000000000102,197.5 243.5,245.5" stroke-width="0" /><polygon clip-path="url(#border_clip)" fill="#aa6028" fill-rule="evenodd" points="29.0,493.0 124.0,493.00000000000205 124.00000000000023,482.00000000000205 29.000000000000227,482.0 29.0,493.0" stroke-width="0" /><polygon clip-path="url(#border_clip)" fill="#778bb9" fill-rule="evenodd" points="104.0,325.0 145.0,325.0000000000009 145.00000000000136,262.0000000000009 104.00000000000136,262.0 104.0,325.0" stroke-width="0" /><polygon clip-path="url(#border_clip)" fill="#8c99b1" fill-rule="evenodd" points="496.5,537.5 536.5,537.5000000000009 536.5000000000009,493.5000000000009 496.50000000000097,493.5 496.5,537.5" stroke-width="0" /><polygon clip-path="url(#border_clip)" fill="#882772" fill-rule="evenodd" points="222.0,637.5 239.0,637.5000000000005 239.00000000000028,625.5000000000005 222.00000000000028,625.5 222.00000000000003,637.5" stroke-width="0" /><polygon clip-path="url(#border_clip)" fill="#554858" fill-rule="evenodd" points="353.5,193.5 447.5,193.5000000000021 447.500000000001,147.5000000000021 353.500000000001,147.5 353.5,193.5" stroke-width="0" /><polygon clip-path="url(#border_clip)" fill="#3ac970" fill-rule="evenodd" points="133.5,98.5 169.5,98.50000000000082 169.500000000001,54.500000000000796 133.500000000001,54.5 133.5,98.5" stroke-width="0" /><polygon clip-path="url(#border_clip)" fill="#5a125e" fill-rule="evenodd" points="560.0,302.5 587.0,302.5000000000006 587.0000000000018,222.50000000000063 560.0000000000018,222.5 560.0,302.5" stroke-width="0" /><polygon clip-path="url(#border_clip)" fill="#9fdb39" fill-rule="evenodd" points="389.0,157.5 484.0,157.5000000000022 484.0000000000015,93.50000000000216 389.0000000000015,93.49999999999994 389.0,157.49999999999994" stroke-width="0" /><polygon clip-path="url(#border_clip)" fill="#fda084" fill-rule="evenodd" points="136.0,449.0 183.0,449.0000000000011 183.00000000000207,360.0000000000011 136.00000000000207,360.0 136.0,449.0" stroke-width="0" /><polygon clip-path="url(#border_clip)" fill="#ec0b80" fill-rule="evenodd" points="44.5,332.5 120.5,332.50000000000176 120.50000000000165,262.5000000000018 44.50000000000165,262.5 44.5,332.5" stroke-width="0" /><polygon clip-path="url(#border_clip)" fill="#d46014" fill-rule="evenodd" points="504.5,590.5 546.5,590.500000000001 546.5000000000007,560.500000000001 504.5000000000007,560.5 504.5,590.5" stroke-width="0" /><polygon clip-path="url(#border_clip)" fill="#3a3976" fill-rule="evenodd" points="550.0,461.5 603.0,461.50000000000125 603.0000000000006,439.50000000000125 550.0000000000006,439.5 550.0,461.5" stroke-width="0" /><polygon clip-path="url(#border_clip)" fill="#257823" fill-rule="evenodd" points="516.0,206.5 549.0,206.5000000000008 549.0000000000018,130.5000000000008 516.0000000000018,130.5 516.0,206.5" stroke-width="0" /><polyline clip-path="url(#border_clip)" fill="none" points="51.0,403.0 136.0,403.0 136.0,348.0 51.0,348.0 51.0,403.0" stroke="black" stroke-linecap="round" stroke-width="1" /><polyline clip-path="url(#border_clip)" fill="none" points="503.5,369.5 515.5,369.5 515.5,345.5 503.5,345.5 503.5,369.5" stroke="black" stroke-linecap="round" stroke-width="1" /><polyline clip-path="url(#border_clip)" fill="none" points="425.5,504.5 457.5,504.5 457.50000000000006,432.5 425.50000000000006,432.5 425.5,504.5" stroke="black" stroke-linecap="round" stroke-width="1" /><polyline clip-path="url(#border_clip)" fill="none" points="105.5,317.0 165.5,317.00000000000006 165.50000000000003,268.00000000000006 105.50000000000003,268.0 105.49999999999997,317.0" stroke="black" stroke-linecap="round" stroke-width="1" /><polyline clip-path="url(#border_clip)" fill="none" points="419.0,165.0 460.0,165.00000000000003 460.0,144.00000000000003 419.0,143.99999999999997 419.0,164.99999999999997" stroke="black" stroke-linecap="round" stroke-width="1" /><polyline clip-path="url(#border_clip)" fill="none" points="495.5,106.0 527.5,106.00000000000003 527.5,97.00000000000003 495.5,96.99999999999997 495.5,105.99999999999997" stroke="black" stroke-linecap="round" stroke-width="1" /><polyline clip-path="url(#border_clip)" fill="none" points="457.0,214.5 468.0,214.50000000000003 468.0000000000001,126.50000000000003 457.0000000000001,126.5 457.0,214.5" stroke="black" stroke-linecap="round" stroke-width="1" /><polyline clip-path="url(#border_clip)" fill="none" points="242.0,376.0 309.0,376.0000000000001 309.0,363.0000000000001 242.00000000000003,363.0 242.0,376.0" stroke="black" stroke-linecap="round" stroke-width="1" /><polyline clip-path="url(#border_clip)" fill="none" points="488.0,489.5 573.0,489.50000000000017 573.0000000000002,407.50000000000017 488.00000000000017,407.5 488.0,489.5" stroke="black" stroke-linecap="round" stroke-width="1" /><polyline clip-path="url(#border_clip)" fill="none" points="426.5,407.0 486.5,407.0000000000001 486.50000000000006,376.0000000000001 426.50000000000006,376.0 426.5,407.0" stroke="black" stroke-linecap="round" stroke-width="1" /><polyline clip-path="url(#border_clip)" fill="none" points="439.5,245.0 453.5,245.00000000000003 453.50000000000006,230.00000000000003 439.50000000000006,230.0 439.5,245.0" stroke="black" stroke-linecap="round" stroke-width="1" /><polyline clip-path="url(#border_clip)" fill="none" points="49.5,562.5 131.5,562.5000000000002 131.5000000000002,488.5000000000002 49.50000000000023,488.5 49.5,562.5" stroke="black" stroke-linecap="round" stroke-width="1" /><polyline clip-path="url(#border_clip)" fill="none" points="136.0,104.0 151.0,104.00000000000006 151.00000000000009,73.00000000000006 136.00000000000009,73.0 136.0,104.0" stroke="black" stroke-linecap="round" stroke-width="1" /><polyline clip-path="url(#border_clip)" fill="none" points="165.0,632.0 172.0,632.0 172.0000000000002,567.0 165.0000000000002,567.0 164.99999999999997,632.0" stroke="black" stroke-linecap="round" stroke-width="1" /><polyline clip-path="url(#border_clip)" fill="none" points="114.0,404.5 171.0,404.5000000000002 171.00000000000009,376.5000000000002 114.00000000000009,376.5 113.99999999999997,404.5" stroke="black" stroke-linecap="round" stroke-width="1" /><polyline clip-path="url(#border_clip)" fill="none" points="75.0,535.5 146.0,535.5000000000002 146.0000000000001,503.5000000000002 75.00000000000011,503.5 75.0,535.5" stroke="black" stroke-linecap="round" stroke-width="1" /><polyline clip-path="url(#border_clip)" fill="none" points="509.5,514.5 569.5,514.5000000000002 569.5000000000001,490.5000000000002 509.5000000000001,490.5 509.5,514.5" stroke="black" stroke-linecap="round" stroke-width="1" /><polyline clip-path="url(#border_clip)" fill="none" points="304.5,359.0 400.5,359.0000000000004 400.50000000000034,282.0000000000004 304.50000000000034,282.0 304.5,359.0" stroke="black" stroke-linecap="round" stroke-width="1" /><polyline clip-path="url(#border_clip)" fill="none" points="277.0,182.5 290.0,182.50000000000006 290.00000000000034,110.50000000000006 277.00000000000034,110.5 277.0,182.5" stroke="black" stroke-linecap="round" stroke-width="1" /><polyline clip-path="url(#border_clip)" fill="none" points="88.0,643.0 93.0,643.0 93.00000000000017,612.0 88.00000000000017,612.0 88.0,643.0" stroke="black" stroke-linecap="round" stroke-width="1" /><polyline clip-path="url(#border_clip)" fill="none" points="394.5,647.0 492.5,647.0000000000005 492.5000000000001,630.0000000000005 394.5000000000001,630.0 394.5,647.0" stroke="black" stroke-linecap="round" stroke-width="1" /><polyline clip-path="url(#border_clip)" fill="none" points="583.0,350.0 608.0,350.0000000000001 608.0000000000005,269.0000000000001 583.0000000000005,269.0 583.0,350.0" stroke="black" stroke-linecap="round" stroke-width="1" /><polyline clip-path="url(#border_clip)" fill="none" points="421.5,499.0 501.5,499.00000000000045 501.50000000000034,432.00000000000045 421.50000000000034,432.0 421.5,499.0" stroke="black" stroke-linecap="round" stroke-width="1" /><polyline clip-path="url(#border_clip)" fill="none" points="363.0,557.5 380.0,557.5000000000001 380.0000000000004,483.5000000000001 363.0000000000004,483.5 363.0,557.5" stroke="black" stroke-linecap="round" stroke-width="1" /><polyline clip-path="url(#border_clip)" fill="none" points="493.0,383.0 590.0,383.00000000000057 590.0000000000002,340.00000000000057 493.0000000000002,340.0 493.0,383.0" stroke="black" stroke-linecap="round" stroke-width="1" /><polyline clip-path="url(#border_clip)" fill="none" points="91.0,327.5 120.0,327.50000000000017 120.0000000000006,229.50000000000017 91.00000000000057,229.5 90.99999999999994,327.5" stroke="black" stroke-linecap="round" stroke-width="1" /><polyline clip-path="url(#border_clip)" fill="none" points="218.5,504.5 264.5,504.5000000000003 264.50000000000034,452.5000000000003 218.50000000000034,452.5 218.5,504.5" stroke="black" stroke-linecap="round" stroke-width="1" /><polyline clip-path="url(#border_clip)" fill="none" points="319.0,513.5 380.0,513.5000000000005 380.0000000000005,439.5000000000004 319.0000000000005,439.5 319.0,513.5" stroke="black" stroke-linecap="round" stroke-width="1" /><polyline clip-path="url(#border_clip)" fill="none" points="120.5,355.0 142.5,355.00000000000017 142.5000000000004,298.00000000000017 120.5000000000004,298.0 120.5,355.0" stroke="black" stroke-linecap="round" stroke-width="1" /><polyline clip-path="url(#border_clip)" fill="none" points="500.5,379.0 584.5,379.00000000000057 584.5000000000005,306.00000000000057 500.5000000000005,306.0 500.5,379.0" stroke="black" stroke-linecap="round" stroke-width="1" /><polyline clip-path="url(#border_clip)" fill="none" points="86.5,170.5 182.5,170.5000000000007 182.50000000000048,104.50000000000071 86.50000000000045,104.5 86.49999999999994,170.5" stroke="black" stroke-linecap="round" stroke-width="1" /><polyline clip-path="url(#border_clip)" fill="none" points="79.5,355.5 131.5,355.5000000000004 131.50000000000034,309.5000000000004 79.50000000000034,309.5 79.5,355.5" stroke="black" stroke-linecap="round" stroke-width="1" /><polyline clip-path="url(#border_clip)" fill="none" points="177.0,449.0 246.0,449.00000000000057 246.00000000000045,392.00000000000057 177.00000000000045,392.0 177.0,449.0" stroke="black" stroke-linecap="round" stroke-width="1" /><polyline clip-path="url(#border_clip)" fill="none" points="74.0,372.0 123.0,372.0000000000004 123.00000000000068,287.0000000000004 74.00000000000068,287.0 74.0,372.0" stroke="black" stroke-linecap="round" stroke-width="1" /><polyline clip-path="url(#border_clip)" fill="none" points="429.0,540.0 434.0,540.0 434.0000000000008,445.0 429.0000000000008,445.0 429.0,540.0" stroke="black" stroke-linecap="round" stroke-width="1" /><polyline clip-path="url(#border_clip)" fill="none" points="261.0,113.5 274.0,113.50000000000011 274.0000000000007,33.500000000000114 261.0000000000007,33.5 261.0,113.5" stroke="black" stroke-linecap="round" stroke-width="1" /><polyline clip-path="url(#border_clip)" fill="none" points="240.5,104.5 294.5,104.50000000000048 294.50000000000074,20.500000000000455 240.50000000000074,20.5 240.5,104.5" stroke="black" stroke-linecap="round" stroke-width="1" /><polyline clip-path="url(#border_clip)" fill="none" points="209.5,156.5 221.5,156.5000000000001 221.50000000000037,116.50000000000011 209.50000000000037,116.5 209.5,156.5" stroke="black" stroke-linecap="round" stroke-width="1" /><polyline clip-path="url(#border_clip)" fill="none" points="187.5,142.0 207.5,142.0000000000002 207.50000000000065,73.00000000000023 187.50000000000065,73.00000000000006 187.5,142.00000000000006" stroke="black" stroke-linecap="round" stroke-width="1" /><polyline clip-path="url(#border_clip)" fill="none" points="207.5,312.0 301.5,312.0000000000009 301.5000000000007,241.0000000000009 207.50000000000068,241.0 207.5,312.0" stroke="black" stroke-linecap="round" stroke-width="1" /><polyline clip-path="url(#border_clip)" fill="none" points="50.5,161.5 92.5,161.5000000000004 92.50000000000023,137.5000000000004 50.50000000000023,137.49999999999997 50.5,161.49999999999997" stroke="black" stroke-linecap="round" stroke-width="1" /><polyline clip-path="url(#border_clip)" fill="none" points="444.5,394.0 526.5,394.0000000000008 526.5000000000002,365.0000000000008 444.5000000000003,365.0 444.5,394.0" stroke="black" stroke-linecap="round" stroke-width="1" /><polyline clip-path="url(#border_clip)" fill="none" points="193.5,120.0 273.5,120.00000000000082 273.50000000000097,27.000000000000796 193.50000000000097,26.999999999999943 193.5,119.99999999999994" stroke="black" stroke-linecap="round" stroke-width="1" /><polyline clip-path="url(#border_clip)" fill="none" points="490.0,217.0 509.0,217.0000000000002 509.0000000000009,134.0000000000002 490.0000000000009,134.0 490.0,217.0" stroke="black" stroke-linecap="round" stroke-width="1" /><polyline clip-path="url(#border_clip)" fill="none" points="246.5,494.0 284.5,494.0000000000004 284.5000000000005,447.0000000000004 246.5000000000005,447.0 246.5,494.0" stroke="black" stroke-linecap="round" stroke-width="1" /><polyline clip-path="url(#border_clip)" fill="none" points="614.5,656.0 622.5,656.0000000000001 622.5000000000005,613.0000000000001 614.5000000000005,613.0 614.5,656.0" stroke="black" stroke-linecap="round" stroke-width="1" /><polyline clip-path="url(#border_clip)" fill="none" points="110.5,122.5 150.5,122.50000000000045 150.5000000000005,78.50000000000045 110.50000000000051,78.5 110.5,122.5" stroke="black" stroke-linecap="round" stroke-width="1" /><polyline clip-path="url(#border_clip)" fill="none" points="419.0,459.0 432.0,459.00000000000017 432.00000000000085,384.00000000000017 419.00000000000085,384.0 419.0,459.0" stroke="black" stroke-linecap="round" stroke-width="1" /><polyline clip-path="url(#border_clip)" fill="none" points="596.5,112.0 678.5,112.00000000000097 678.5000000000007,49.000000000000966 596.5000000000007,49.0 596.5,112.0" stroke="black" stroke-linecap="round" stroke-width="1" /><polyline clip-path="url(#border_clip)" fill="none" points="435.5,441.5 511.5,441.5000000000009 511.50000000000045,401.5000000000009 435.50000000000045,401.5 435.5,441.5" stroke="black" stroke-linecap="round" stroke-width="1" /><polyline clip-path="url(#border_clip)" fill="none" points="507.5,562.0 531.5,562.0000000000002 531.5000000000011,473.0000000000003 507.50000000000114,473.0 507.5,562.0" stroke="black" stroke-linecap="round" stroke-width="1" /><polyline clip-path="url(#border_clip)" fill="none" points="516.5,381.0 580.5,381.0000000000008 580.5000000000005,342.0000000000008 516.5000000000005,342.0 516.5,381.0" stroke="black" stroke-linecap="round" stroke-width="1" /><polyline clip-path="url(#border_clip)" fill="none" points="367.0,88.0 374.0,88.00000000000011 374.00000000000034,63.000000000000114 367.00000000000034,63.0 367.0,88.0" stroke="black" stroke-linecap="round" stroke-width="1" /><polyline clip-path="url(#border_clip)" fill="none" points="456.5,94.0 544.5,94.00000000000114 544.5000000000003,65.00000000000114 456.50000000000034,65.0 456.5,94.0" stroke="black" stroke-linecap="round" stroke-width="1" /><polyline clip-path="url(#border_clip)" fill="none" points="214.0,83.0 253.0,83.00000000000051 253.00000000000026,64.00000000000051 214.00000000000026,64.0 214.0,83.0" stroke="black" stroke-linecap="round" stroke-width="1" /><polyline clip-path="url(#border_clip)" fill="none" points="71.0,120.0 136.0,120.00000000000088 136.00000000000082,59.00000000000091 71.0000000000008,59.0 70.99999999999994,120.0" stroke="black" stroke-linecap="round" stroke-width="1" /><polyline clip-path="url(#border_clip)" fill="none" points="430.5,242.5 464.5,242.50000000000045 464.5000000000001,234.50000000000045 430.5000000000001,234.5 430.5,242.5" stroke="black" stroke-linecap="round" stroke-width="1" /><polyline clip-path="url(#border_clip)" fill="none" points="452.0,544.0 493.0,544.0000000000006 493.0000000000008,489.00000000000057 452.0000000000008,489.0 452.0,544.0" stroke="black" stroke-linecap="round" stroke-width="1" /><polyline clip-path="url(#border_clip)" fill="none" points="53.0,588.5 116.0,588.5000000000009 116.00000000000048,554.5000000000009 53.000000000000455,554.5 52.99999999999994,588.5" stroke="black" stroke-linecap="round" stroke-width="1" /><polyline clip-path="url(#border_clip)" fill="none" points="547.5,408.5 641.5,408.50000000000136 641.5000000000005,380.50000000000136 547.5000000000005,380.5 547.5,408.5" stroke="black" stroke-linecap="round" stroke-width="1" /><polyline clip-path="url(#border_clip)" fill="none" points="523.0,508.0 578.0,508.0000000000008 578.0000000000014,411.0000000000008 523.0000000000014,411.0 523.0,508.0" stroke="black" stroke-linecap="round" stroke-width="1" /><polyline clip-path="url(#border_clip)" fill="none" points="391.5,205.0 463.5,205.00000000000108 463.50000000000125,120.00000000000108 391.50000000000125,120.0 391.5,205.0" stroke="black" stroke-linecap="round" stroke-width="1" /><polyline clip-path="url(#border_clip)" fill="none" points="458.5,491.0 512.5,491.0000000000008 512.5000000000009,428.0000000000008 458.50000000000097,428.0 458.5,491.0" stroke="black" stroke-linecap="round" stroke-width="1" /><polyline clip-path="url(#border_clip)" fill="none" points="441.5,611.5 451.5,611.5000000000002 451.50000000000045,583.5000000000002 441.50000000000045,583.5 441.5,611.5" stroke="black" stroke-linecap="round" stroke-width="1" /><polyline clip-path="url(#border_clip)" fill="none" points="224.5,306.0 238.5,306.0000000000002 238.5000000000009,249.00000000000023 224.5000000000009,249.0 224.5,306.0" stroke="black" stroke-linecap="round" stroke-width="1" /><polyline clip-path="url(#border_clip)" fill="none" points="177.0,320.5 204.0,320.50000000000045 204.00000000000017,310.50000000000045 177.00000000000017,310.5 177.0,320.5" stroke="black" stroke-linecap="round" stroke-width="1" /><polyline clip-path="url(#border_clip)" fill="none" points="144.5,113.0 170.5,113.00000000000043 170.50000000000074,68.00000000000045 144.50000000000074,68.00000000000006 144.5,113.00000000000006" stroke="black" stroke-linecap="round" stroke-width="1" /><polyline clip-path="url(#border_clip)" fill="none" points="125.5,470.5 165.5,470.5000000000007 165.50000000000165,370.5000000000007 125.50000000000165,370.5 125.5,470.5" stroke="black" stroke-linecap="round" stroke-width="1" /><polyline clip-path="url(#border_clip)" fill="none" points="503.0,389.5 516.0,389.5000000000002 516.0000000000006,353.5000000000002 503.00000000000057,353.5 503.0,389.5" stroke="black" stroke-linecap="round" stroke-width="1" /><polyline clip-path="url(#border_clip)" fill="none" points="482.5,509.0 548.5,509.00000000000114 548.5000000000003,488.00000000000114 482.50000000000034,488.0 482.5,509.0" stroke="black" stroke-linecap="round" stroke-width="1" /><polyline clip-path="url(#border_clip)" fill="none" points="348.5,639.0 434.5,639.0000000000015 434.5000000000008,594.0000000000015 348.5000000000008,594.0 348.5,639.0" stroke="black" stroke-linecap="round" stroke-width="1" /><polyline clip-path="url(#border_clip)" fill="none" points="461.0,574.5 538.0,574.5000000000014 538.0000000000016,486.50000000000136 461.00000000000153,486.5 461.0,574.5" stroke="black" stroke-linecap="round" stroke-width="1" /><polyline clip-path="url(#border_clip)" fill="none" points="400.0,249.5 471.0,249.50000000000125 471.0000000000002,235.50000000000125 400.0000000000002,235.5 400.0,249.5" stroke="black" stroke-linecap="round" stroke-width="1" /><polyline clip-path="url(#border_clip)" fill="none" points="157.0,353.5 162.0,353.5000000000001 162.00000000000165,261.5000000000001 157.00000000000165,261.5 157.0,353.5" stroke="black" stroke-linecap="round" stroke-width="1" /><polyline clip-path="url(#border_clip)" fill="none" points="300.5,689.5 326.5,689.5000000000005 326.5000000000016,603.5000000000005 300.5000000000016,603.5 300.5,689.5" stroke="black" stroke-linecap="round" stroke-width="1" /><polyline clip-path="url(#border_clip)" fill="none" points="94.5,272.0 178.5,272.00000000000153 178.50000000000028,257.00000000000153 94.50000000000028,257.0 94.5,272.0" stroke="black" stroke-linecap="round" stroke-width="1" /><polyline clip-path="url(#border_clip)" fill="none" points="316.0,490.5 355.0,490.50000000000074 355.0000000000003,474.50000000000074 316.0000000000003,474.5 316.0,490.5" stroke="black" stroke-linecap="round" stroke-width="1" /><polyline clip-path="url(#border_clip)" fill="none" points="582.5,169.5 672.5,169.5000000000017 672.5000000000014,95.5000000000017 582.5000000000014,95.5 582.5,169.5" stroke="black" stroke-linecap="round" stroke-width="1" /><polyline clip-path="url(#border_clip)" fill="none" points="355.5,573.5 401.5,573.5000000000009 401.50000000000034,555.5000000000009 355.50000000000034,555.5 355.5,573.5" stroke="black" stroke-linecap="round" stroke-width="1" /><polyline clip-path="url(#border_clip)" fill="none" points="482.0,377.0 571.0,377.0000000000017 571.0000000000011,322.0000000000017 482.0000000000011,322.0 482.0,377.0" stroke="black" stroke-linecap="round" stroke-width="1" /><polyline clip-path="url(#border_clip)" fill="none" points="307.5,690.0 385.5,690.0000000000016 385.5000000000018,597.0000000000016 307.5000000000018,597.0 307.5,690.0" stroke="black" stroke-linecap="round" stroke-width="1" /><polyline clip-path="url(#border_clip)" fill="none" points="63.5,147.5 79.5,147.5000000000003 79.50000000000148,73.50000000000034 63.50000000000148,73.5 63.5,147.5" stroke="black" stroke-linecap="round" stroke-width="1" /><polyline clip-path="url(#border_clip)" fill="none" points="63.0,275.0 92.0,275.00000000000057 92.00000000000176,188.00000000000057 63.00000000000176,187.99999999999997 63.0,275.0" stroke="black" stroke-linecap="round" stroke-width="1" /><polyline clip-path="url(#border_clip)" fill="none" points="599.5,216.5 607.5,216.50000000000017 607.5000000000014,152.50000000000017 599.5000000000014,152.5 599.5,216.5" stroke="black" stroke-linecap="round" stroke-width="1" /><polyline clip-path="url(#border_clip)" fill="none" points="562.5,104.5 654.5,104.5000000000019 654.5000000000007,74.50000000000193 562.5000000000007,74.50000000000006 562.5,104.50000000000006" stroke="black" stroke-linecap="round" stroke-width="1" /><polyline clip-path="url(#border_clip)" fill="none" points="334.5,315.5 354.5,315.5000000000004 354.5000000000001,309.5000000000004 334.5000000000001,309.5 334.5,315.5" stroke="black" stroke-linecap="round" stroke-width="1" /><polyline clip-path="url(#border_clip)" fill="none" points="243.5,245.5 289.5,245.50000000000097 289.500000000001,197.50000000000097 243.50000000000102,197.5 243.5,245.5" stroke="black" stroke-linecap="round" stroke-width="1" /><polyline clip-path="url(#border_clip)" fill="none" points="29.0,493.0 124.0,493.00000000000205 124.00000000000023,482.00000000000205 29.000000000000227,482.0 29.0,493.0" stroke="black" stroke-linecap="round" stroke-width="1" /><polyline clip-path="url(#border_clip)" fill="none" points="104.0,325.0 145.0,325.0000000000009 145.00000000000136,262.0000000000009 104.00000000000136,262.0 104.0,325.0" stroke="black" stroke-linecap="round" stroke-width="1" /><polyline clip-path="url(#border_clip)" fill="none" points="496.5,537.5 536.5,537.5000000000009 536.5000000000009,493.5000000000009 496.50000000000097,493.5 496.5,537.5" stroke="black" stroke-linecap="round" stroke-width="1" /><polyline clip-path="url(#border_clip)" fill="none" points="222.0,637.5 239.0,637.5000000000005 239.00000000000028,625.5000000000005 222.00000000000028,625.5 222.00000000000003,637.5" stroke="black" stroke-linecap="round" stroke-width="1" /><polyline clip-path="url(#border_clip)" fill="none" points="353.5,193.5 447.5,193.5000000000021 447.500000000001,147.5000000000021 353.500000000001,147.5 353.5,193.5" stroke="black" stroke-linecap="round" stroke-width="1" /><polyline clip-path="url(#border_clip)" fill="none" points="133.5,98.5 169.5,98.50000000000082 169.500000000001,54.500000000000796 133.500000000001,54.5 133.5,98.5" stroke="black" stroke-linecap="round" stroke-width="1" /><polyline clip-path="url(#border_clip)" fill="none" points="560.0,302.5 587.0,302.5000000000006 587.0000000000018,222.50000000000063 560.0000000000018,222.5 560.0,302.5" stroke="black" stroke-linecap="round" stroke-width="1" /><polyline clip-path="url(#border_clip)" fill="none" points="389.0,157.5 484.0,157.5000000000022 484.0000000000015,93.50000000000216 389.0000000000015,93.49999999999994 389.0,157.49999999999994" stroke="black" stroke-linecap="round" stroke-width="1" /><polyline clip-path="url(#border_clip)" fill="none" points="136.0,449.0 183.0,449.0000000000011 183.00000000000207,360.0000000000011 136.00000000000207,360.0 136.0,449.0" stroke="black" stroke-linecap="round" stroke-width="1" /><polyline clip-path="url(#border_clip)" fill="none" points="44.5,332.5 120.5,332.50000000000176 120.50000000000165,262.5000000000018 44.50000000000165,262.5 44.5,332.5" stroke="black" stroke-linecap="round" stroke-width="1" /><polyline clip-path="url(#border_clip)" fill="none" points="504.5,590.5 546.5,590.500000000001 546.5000000000007,560.500000000001 504.5000000000007,560.5 504.5,590.5" stroke="black" stroke-linecap="round" stroke-width="1" /><polyline clip-path="url(#border_clip)" fill="none" points="550.0,461.5 603.0,461.50000000000125 603.0000000000006,439.50000000000125 550.0000000000006,439.5 550.0,461.5" stroke="black" stroke-linecap="round" stroke-width="1" /><polyline clip-path="url(#border_clip)" fill="none" points="516.0,206.5 549.0,206.5000000000008 549.0000000000018,130.5000000000008 516.0000000000018,130.5 516.0,206.5" stroke="black" stroke-linecap="round" stroke-width="1" /></svg>